<?xml version="1.0" standalone="no"?>
<!DOCTYPE svg PUBLIC "-//W3C//DTD SVG 20010904//EN"
 "http://www.w3.org/TR/2001/REC-SVG-20010904/DTD/svg10.dtd">
<svg version="1.0" xmlns="http://www.w3.org/2000/svg"
 width="1088.000000pt" height="1088.000000pt" viewBox="0 0 1088.000000 1088.000000"
 preserveAspectRatio="xMidYMid meet">
<metadata>
Created by potrace 1.14, written by Peter Selinger 2001-2017
</metadata>
<g transform="translate(0.000000,1088.000000) scale(0.100000,-0.100000)"
fill="#000000" stroke="none">
<path d="M2038 7845 c-2 -2 -30 -6 -63 -8 -343 -28 -702 -220 -948 -505 -161
-187 -285 -452 -332 -707 -15 -83 -18 -343 -18 -1395 0 -1127 7 -1923 19
-2070 15 -196 76 -365 190 -526 196 -278 546 -346 899 -174 119 58 204 130
269 229 46 69 88 166 105 244 6 23 13 56 17 72 12 51 17 2225 5 2225 -7 0 -11
-29 -12 -72 -1 -40 -3 -98 -5 -128 -5 -79 -13 -236 -18 -375 -3 -66 -8 -163
-11 -215 -3 -52 -7 -149 -10 -215 -3 -66 -7 -156 -10 -200 -3 -44 -7 -134 -10
-200 -3 -66 -7 -156 -10 -200 -3 -44 -7 -134 -10 -200 -6 -139 -15 -260 -21
-289 -2 -12 -7 -37 -10 -56 -18 -122 -103 -288 -190 -374 -175 -173 -422 -207
-647 -89 -131 69 -241 216 -278 373 -15 63 -17 237 -6 485 5 94 10 211 12 260
5 102 13 282 20 465 3 69 7 166 10 215 2 50 7 142 10 205 3 63 8 147 10 185 3
39 7 115 10 170 3 55 8 147 11 205 3 58 7 137 9 175 12 213 23 394 30 480 3
33 7 96 10 140 3 44 8 105 10 135 3 30 8 78 10 105 10 112 17 181 20 195 2 8
6 49 10 90 35 366 253 635 650 801 81 34 196 53 325 53 215 1 320 -33 525
-169 109 -72 207 -159 425 -376 208 -207 310 -285 475 -365 298 -143 591 -141
903 7 121 57 266 150 372 238 41 35 95 79 119 99 25 21 58 49 75 64 139 119
210 178 261 216 209 154 441 195 678 117 278 -90 469 -267 527 -486 17 -66 18
-99 14 -314 -2 -132 -6 -292 -9 -355 -2 -63 -7 -182 -10 -265 -3 -82 -8 -199
-10 -260 -2 -60 -7 -171 -10 -245 -7 -202 -17 -440 -30 -715 -2 -49 -7 -157
-10 -240 -11 -266 -23 -507 -30 -610 -18 -267 -25 -708 -13 -805 10 -76 44
-184 80 -252 42 -80 104 -140 184 -179 61 -30 77 -34 154 -34 105 0 147 8 209
40 141 71 219 232 246 510 3 35 7 141 21 625 14 504 -10 2850 -31 3000 -1 14
-6 52 -10 85 -10 83 -67 252 -120 360 -85 170 -200 322 -329 430 -32 28 -64
55 -71 62 -32 30 -194 128 -268 162 -136 63 -301 112 -434 129 -114 14 -409 6
-473 -13 -8 -2 -27 -7 -42 -10 -16 -3 -39 -7 -53 -10 -67 -14 -231 -78 -320
-124 -174 -91 -256 -157 -511 -407 -256 -251 -311 -293 -442 -336 -53 -18 -89
-23 -172 -22 -194 1 -311 54 -470 214 -58 58 -126 129 -150 159 -64 76 -157
170 -215 216 -27 22 -52 42 -55 45 -17 19 -160 106 -236 144 -149 74 -294 121
-454 147 -67 10 -334 21 -342 14z"/>
<path d="M9215 7616 c-74 -45 -107 -153 -68 -223 19 -33 117 -138 217 -231 32
-29 66 -72 76 -95 22 -47 25 -119 7 -159 -7 -15 -71 -88 -144 -163 -142 -146
-178 -201 -170 -260 10 -74 90 -147 161 -147 61 0 84 17 283 207 52 50 105 96
118 102 55 30 151 18 197 -24 11 -10 54 -61 96 -113 127 -158 185 -203 262
-202 105 2 172 112 140 232 -16 59 -109 151 -264 260 -196 138 -198 151 -54
287 33 32 67 64 75 72 17 16 76 65 127 106 21 17 48 38 60 49 11 10 31 25 44
33 51 35 57 159 11 225 -42 59 -146 82 -219 48 -14 -6 -84 -72 -155 -147 -134
-140 -179 -172 -243 -173 -69 0 -101 25 -302 235 -41 43 -89 84 -107 91 -49
21 -103 17 -148 -10z"/>
<path d="M8465 7611 c-22 -12 -107 -87 -190 -167 -82 -81 -164 -153 -182 -160
-86 -37 -128 -13 -378 221 -22 20 -53 44 -70 52 -16 9 -32 19 -35 22 -13 15
-54 32 -94 37 -38 6 -47 3 -76 -23 -25 -23 -32 -37 -32 -66 0 -98 122 -257
307 -401 159 -124 264 -171 345 -156 l37 7 -23 -51 c-34 -77 -55 -195 -61
-352 -7 -165 -1 -205 33 -239 47 -47 119 -29 155 37 5 9 11 92 14 185 10 322
3 309 281 585 112 111 211 218 220 237 32 68 2 177 -60 219 -50 34 -138 40
-191 13z"/>
</g>
</svg>
