<svg width="163" height="145" viewBox="0 0 163 145" fill="none" xmlns="http://www.w3.org/2000/svg">
<circle cx="81.2845" cy="72.476" r="56.8005" transform="rotate(-11.6654 81.2845 72.476)" stroke="#FF0000" stroke-width="4.42601"/>
<circle cx="81.2853" cy="72.4753" r="33.1951" transform="rotate(-11.6654 81.2853 72.4753)" stroke="#FF0000" stroke-width="4.42601"/>
<circle cx="81.2849" cy="72.4754" r="52.3745" transform="rotate(-11.6654 81.2849 72.4754)" stroke="#FF0000" stroke-width="0.491779"/>
<circle cx="81.2853" cy="72.4758" r="28.2773" transform="rotate(-11.6654 81.2853 72.4758)" stroke="#FF0000" stroke-width="0.491779"/>
<rect x="9.21729" y="73.644" width="141.632" height="27.6692" rx="3.93423" transform="rotate(-11.6654 9.21729 73.644)" fill="#FF0000"/>
<path d="M56.6953 82.5536C58.8144 82.1161 59.6234 80.8443 59.3675 79.6046C58.8053 76.8815 54.6875 78.7149 54.4053 77.3481C54.3091 76.8819 54.6224 76.4195 55.6395 76.2095C56.2965 76.0738 57.0458 76.118 57.8154 76.3678L58.0761 74.9552C57.2977 74.663 56.2982 74.6373 55.3658 74.8298C53.2572 75.2652 52.4566 76.5242 52.7169 77.785C53.2857 80.5399 57.4013 78.696 57.6878 80.084C57.7819 80.5396 57.4387 80.964 56.4215 81.174C55.5314 81.3577 54.5334 81.2324 53.8142 80.9058L53.4983 82.3188C54.2602 82.6918 55.5192 82.7964 56.6953 82.5536ZM64.607 80.9201C66.9381 80.4389 68.3304 78.4612 67.8732 76.2467C67.416 74.0322 65.3542 72.7676 63.0232 73.2489C60.6815 73.7323 59.3019 75.7185 59.757 77.9224C60.212 80.1263 62.2654 81.4036 64.607 80.9201ZM64.3051 79.4579C62.9807 79.7314 61.7856 78.9728 61.4946 77.5636C61.2037 76.1544 62.0006 74.9845 63.3251 74.7111C64.6495 74.4376 65.8446 75.1962 66.1356 76.6054C66.4265 78.0147 65.6296 79.1845 64.3051 79.4579ZM69.9289 79.6888L75.3645 78.5666L75.0757 77.1679L71.3567 77.9358L70.1141 71.9175L68.3976 72.2718L69.9289 79.6888ZM76.3236 78.3686L79.693 77.6729C82.1194 77.172 83.481 75.3663 83.0173 73.12C82.5535 70.8737 80.5881 69.755 78.1617 70.2559L74.7923 70.9516L76.3236 78.3686ZM77.7491 76.605L76.7997 72.0064L78.3679 71.6827C79.8407 71.3786 80.9864 72.059 81.2796 73.4788C81.5727 74.8986 80.7901 75.9771 79.3173 76.2812L77.7491 76.605ZM91.6963 75.3273C94.0274 74.846 95.4198 72.8683 94.9626 70.6538C94.5053 68.4393 92.4435 67.1747 90.1125 67.656C87.7709 68.1395 86.3913 70.1256 86.8463 72.3295C87.3013 74.5334 89.3547 75.8107 91.6963 75.3273ZM91.3944 73.8651C90.07 74.1385 88.8749 73.3799 88.584 71.9707C88.293 70.5615 89.0899 69.3916 90.4144 69.1182C91.7388 68.8448 92.9339 69.6033 93.2249 71.0125C93.5158 72.4218 92.7189 73.5916 91.3944 73.8651ZM100.34 73.5427C102.448 73.1074 103.449 71.6414 102.999 69.4587L102.141 65.3052L100.446 65.6552L101.29 69.7451C101.581 71.1543 101.097 71.8618 100.048 72.0783C99.0101 72.2927 98.2752 71.8368 97.9842 70.4276L97.1398 66.3377L95.4233 66.6921L96.2809 70.8456C96.7315 73.0283 98.2312 73.9781 100.34 73.5427ZM106.781 72.0804L108.497 71.726L107.255 65.7076L109.628 65.2176L109.339 63.819L102.876 65.1534L103.165 66.552L105.538 66.062L106.781 72.0804Z" fill="white"/>
<path d="M44.5307 53.0011C45.8267 51.2683 45.5889 49.7799 44.5753 49.0217C42.3487 47.3563 40.4823 51.4592 39.3647 50.6233C38.9835 50.3381 38.9114 49.7843 39.5335 48.9526C39.9352 48.4154 40.5254 47.9516 41.2671 47.6282L40.5255 46.398C39.7491 46.6954 38.9839 47.3391 38.4137 48.1015C37.1241 49.8256 37.3597 51.2988 38.3907 52.07C40.6433 53.7548 42.501 49.6455 43.6359 50.4944C44.0085 50.773 44.033 51.3183 43.4109 52.15C42.8666 52.8777 42.0364 53.4457 41.2815 53.6783L41.9821 54.9453C42.7997 54.7192 43.8114 53.9627 44.5307 53.0011Z" fill="#FF0000"/>
<path d="M51.883 45.0795C53.6903 43.5305 53.952 41.126 52.4805 39.4091C51.009 37.6923 48.5927 37.5831 46.7855 39.132C44.97 40.6881 44.7235 43.0937 46.188 44.8024C47.6525 46.511 50.0676 46.6355 51.883 45.0795ZM50.9114 43.9458C49.8846 44.8259 48.4717 44.7402 47.5352 43.6477C46.5988 42.5551 46.7303 41.1458 47.7571 40.2657C48.784 39.3856 50.1968 39.4713 51.1333 40.5638C52.0697 41.6564 51.9382 43.0658 50.9114 43.9458Z" fill="#FF0000"/>
<path d="M58.2173 40.2339L63.105 37.6042L62.4283 36.3465L59.0841 38.1458L56.1725 32.7341L54.629 33.5645L58.2173 40.2339Z" fill="#FF0000"/>
<path d="M66.4665 36.1492L69.7743 35.203C72.1564 34.5217 73.3789 32.6191 72.7481 30.4138C72.1173 28.2086 70.0736 27.2403 67.6916 27.9217L64.3837 28.8678L66.4665 36.1492ZM67.7559 34.2837L66.4646 29.7693L68.0041 29.3289C69.4499 28.9153 70.6435 29.5079 71.0422 30.9018C71.4409 32.2957 70.7412 33.4298 69.2954 33.8434L67.7559 34.2837Z" fill="#FF0000"/>
<path d="M87.2503 33.5237C89.6227 33.7172 91.5149 32.2108 91.6988 29.957C91.8827 27.7033 90.2596 25.9101 87.8872 25.7166C85.5041 25.5221 83.6218 27.0403 83.4388 29.2832C83.2558 31.5261 84.8672 33.3293 87.2503 33.5237ZM87.3717 32.0356C86.0238 31.9256 85.0902 30.8616 85.2072 29.4275C85.3242 27.9933 86.4179 27.0947 87.7658 27.2047C89.1138 27.3146 90.0473 28.3786 89.9303 29.8128C89.8133 31.247 88.7197 32.1455 87.3717 32.0356Z" fill="#FF0000"/>
<path d="M98.3109 35.7214C100.357 36.3913 101.954 35.6164 102.648 33.4983L103.967 29.4677L102.322 28.9291L101.023 32.898C100.575 34.2655 99.8037 34.6391 98.7857 34.3058C97.7781 33.9759 97.3669 33.2152 97.8146 31.8477L99.114 27.8788L97.4483 27.3334L96.1287 31.364C95.4352 33.4821 96.2648 35.0515 98.3109 35.7214Z" fill="#FF0000"/>
<path d="M106.934 39.3148L108.449 40.1954L111.537 34.882L113.632 36.0997L114.35 34.8649L108.643 31.549L107.926 32.7838L110.021 34.0014L106.934 39.3148Z" fill="#FF0000"/>
<path d="M57.408 113.919C59.2509 115.053 60.7117 114.682 61.3751 113.604C62.8322 111.235 58.5773 109.748 59.3087 108.559C59.5582 108.154 60.1033 108.032 60.9879 108.576C61.5592 108.928 62.0745 109.473 62.4636 110.183L63.6217 109.333C63.2553 108.587 62.545 107.883 61.7342 107.384C59.9005 106.256 58.4546 106.624 57.7799 107.72C56.3057 110.116 60.5663 111.594 59.8235 112.801C59.5797 113.198 59.0389 113.271 58.1543 112.727C57.3803 112.251 56.7395 111.475 56.4397 110.745L55.2412 111.557C55.5403 112.351 56.3852 113.29 57.408 113.919Z" fill="#FF0000"/>
<path d="M67.5164 118.693C69.7739 119.447 71.9711 118.436 72.6877 116.292C73.4042 114.147 72.2561 112.018 69.9986 111.264C67.7308 110.506 65.5404 111.531 64.8273 113.665C64.1142 115.8 65.2486 117.936 67.5164 118.693ZM67.9895 117.277C66.7068 116.849 66.0542 115.593 66.5102 114.228C66.9662 112.863 68.2428 112.251 69.5254 112.68C70.8081 113.109 71.4607 114.365 71.0048 115.729C70.5488 117.094 69.2722 117.706 67.9895 117.277Z" fill="#FF0000"/>
<path d="M75.5998 120.592L81.1232 121.137L81.2636 119.716L77.4845 119.343L78.0887 113.227L76.3445 113.055L75.5998 120.592Z" fill="#FF0000"/>
<path d="M85.096 121.168L88.5094 120.738C90.9675 120.428 92.4659 118.734 92.1789 116.458C91.8919 114.183 90.0198 112.914 87.5617 113.224L84.1482 113.655L85.096 121.168ZM86.6548 119.521L86.0672 114.863L87.6559 114.662C89.1479 114.474 90.2371 115.242 90.4185 116.68C90.5999 118.119 89.7355 119.133 88.2435 119.321L86.6548 119.521Z" fill="#FF0000"/>
<path d="M105.804 115.363C107.893 114.221 108.646 111.922 107.561 109.938C106.476 107.954 104.134 107.348 102.046 108.49C99.948 109.638 99.2098 111.94 100.29 113.915C101.369 115.889 103.707 116.51 105.804 115.363ZM105.088 114.053C103.901 114.702 102.537 114.326 101.846 113.063C101.156 111.801 101.576 110.449 102.762 109.8C103.949 109.151 105.313 109.527 106.004 110.79C106.694 112.052 106.275 113.404 105.088 114.053Z" fill="#FF0000"/>
<path d="M115.305 108.578C116.887 107.118 116.989 105.346 115.478 103.708L112.602 100.591L111.329 101.765L114.162 104.834C115.137 105.892 115.088 106.747 114.301 107.473C113.521 108.193 112.657 108.181 111.681 107.123L108.849 104.054L107.561 105.243L110.437 108.36C111.948 109.998 113.723 110.038 115.305 108.578Z" fill="#FF0000"/>
<path d="M121.651 101.282L122.651 99.8425L117.602 96.3383L118.984 94.3474L117.811 93.533L114.048 98.9546L115.221 99.769L116.603 97.7781L121.651 101.282Z" fill="#FF0000"/>
</svg>
