<svg width="28" height="28" viewBox="0 0 28 28" fill="none" xmlns="http://www.w3.org/2000/svg">
<g clip-path="url(#clip0_10871_262235)">
<path d="M26.6981 13.9994C26.6981 21.0134 21.0114 26.7 13.9975 26.7C6.98353 26.7 1.29688 21.0134 1.29688 13.9994C1.29688 6.98548 6.98353 1.29883 13.9975 1.29883C21.0129 1.29883 26.6981 6.98544 26.6981 13.9994Z" stroke="#A8A8A8" stroke-opacity="0.38"/>
<path d="M7.30988 14.443L7.36682 14.3534L10.8008 8.98138C10.851 8.90273 10.969 8.91086 11.007 8.99629C11.5807 10.282 12.0757 11.881 11.8438 12.8765C11.7448 13.2861 11.4735 13.8408 11.1684 14.3534C11.129 14.428 11.0856 14.5013 11.0395 14.5718C11.0178 14.6044 10.9812 14.6233 10.9419 14.6233H7.41023C7.31529 14.6233 7.25969 14.5203 7.30988 14.443Z" fill="#7E7D95"/>
<path d="M22.6166 15.4412V16.2915C22.6166 16.3403 22.5868 16.3837 22.5434 16.4027C22.2776 16.5166 21.3676 16.9344 20.9892 17.4606C20.0235 18.8046 19.2857 20.7264 17.6365 20.7264H10.7563C8.31785 20.7264 6.3418 18.7436 6.3418 16.2969V16.2183C6.3418 16.1532 6.39468 16.1003 6.45978 16.1003H10.2952C10.3712 16.1003 10.4268 16.1708 10.42 16.2454C10.3929 16.4949 10.439 16.7499 10.557 16.9818C10.7848 17.4443 11.2568 17.7332 11.7667 17.7332H13.6655V16.2508H11.7884C11.6922 16.2508 11.6352 16.1396 11.6908 16.061C11.7111 16.0297 11.7342 15.9972 11.7586 15.9606C11.9363 15.7083 12.1899 15.3164 12.4422 14.8702C12.6144 14.5691 12.7812 14.2477 12.9155 13.9249C12.9426 13.8666 12.9643 13.8069 12.986 13.7486C13.0226 13.6455 13.0606 13.5492 13.0877 13.4529C13.1149 13.3715 13.1365 13.2861 13.1582 13.2061C13.222 12.9321 13.2491 12.6419 13.2491 12.3408C13.2491 12.2228 13.2437 12.0994 13.2328 11.9814C13.2274 11.8526 13.2111 11.7237 13.1949 11.5949C13.184 11.4809 13.1637 11.3684 13.142 11.2504C13.1149 11.0781 13.0769 10.9073 13.0335 10.735L13.0185 10.6699C12.986 10.5519 12.9589 10.4394 12.9209 10.3214C12.8138 9.95109 12.6904 9.59034 12.5601 9.25265C12.5127 9.11837 12.4584 8.98953 12.4042 8.8607C12.3242 8.66675 12.2428 8.49044 12.1682 8.32362C12.1302 8.24766 12.0977 8.17849 12.0651 8.10797C12.0285 8.02795 11.9905 7.94793 11.9525 7.872C11.9254 7.81368 11.8942 7.75942 11.8725 7.70517L11.6406 7.2766C11.6081 7.21828 11.6623 7.14911 11.7261 7.16674L13.1772 7.56004H13.1813C13.184 7.56004 13.1854 7.56141 13.1867 7.56141L13.3779 7.6143L13.5882 7.67399L13.6655 7.69566V6.83311C13.6655 6.41674 13.9991 6.07904 14.4114 6.07904C14.6176 6.07904 14.8047 6.16313 14.939 6.3001C15.0732 6.43709 15.1573 6.62425 15.1573 6.83311V8.11341L15.312 8.15679C15.3242 8.16088 15.3364 8.16629 15.3472 8.17442C15.3852 8.20291 15.4394 8.24494 15.5086 8.2965C15.5629 8.33988 15.6212 8.39279 15.6917 8.44704C15.8314 8.55959 15.9982 8.70472 16.1813 8.87155C16.2301 8.91358 16.2776 8.95698 16.321 9.00038C16.557 9.22009 16.8215 9.47777 17.0737 9.76259C17.1442 9.84261 17.2134 9.92398 17.2839 10.0094C17.3544 10.0962 17.429 10.1817 17.4941 10.2671C17.5796 10.381 17.6718 10.499 17.7518 10.6224C17.7898 10.6808 17.8332 10.7404 17.8698 10.7988C17.9729 10.9547 18.0638 11.1161 18.1506 11.2775C18.1872 11.3521 18.2252 11.4335 18.2577 11.5135C18.354 11.7291 18.4299 11.9488 18.4788 12.1686C18.4937 12.216 18.5045 12.2676 18.51 12.3137V12.3245C18.5262 12.3896 18.5317 12.4588 18.5371 12.5293C18.5588 12.7544 18.5479 12.9796 18.4991 13.2061C18.4788 13.3024 18.4516 13.3932 18.4191 13.4895C18.3865 13.5818 18.354 13.678 18.312 13.7689C18.2306 13.9574 18.1343 14.1459 18.0204 14.3223C17.9837 14.3874 17.9403 14.4565 17.8969 14.5216C17.8495 14.5908 17.8006 14.6559 17.7572 14.7196C17.6976 14.801 17.6338 14.8864 17.5687 14.9624C17.5104 15.0424 17.4508 15.1224 17.3856 15.193C17.2948 15.3001 17.208 15.4018 17.1171 15.4995C17.0629 15.5632 17.0045 15.6283 16.9449 15.6866C16.8866 15.7517 16.8269 15.81 16.7726 15.8643C16.6818 15.9552 16.6058 16.0257 16.5421 16.084L16.3929 16.221C16.3712 16.24 16.3427 16.2508 16.3129 16.2508H15.1573V17.7332H16.6112C16.9367 17.7332 17.246 17.6179 17.4955 17.4063C17.5809 17.3317 17.9539 17.009 18.3947 16.5221C18.4096 16.5058 18.4286 16.4936 18.4503 16.4882L22.4661 15.3272C22.5407 15.3055 22.6166 15.3625 22.6166 15.4412Z" fill="#7E7D95"/>
</g>
<defs>
<clipPath id="clip0_10871_262235">
<rect width="26.4012" height="26.4012" fill="white" transform="translate(0.796875 0.798828)"/>
</clipPath>
</defs>
</svg>
