<svg width="26" height="26" viewBox="0 0 26 26" fill="none" xmlns="http://www.w3.org/2000/svg">
<path d="M0 13C0 5.8203 5.8203 0 13 0V0C20.1797 0 26 5.8203 26 13V13C26 20.1797 20.1797 26 13 26V26C5.8203 26 0 20.1797 0 13V13Z" fill="#17172D"/>
<path d="M0 13C0 5.8203 5.8203 0 13 0V0C20.1797 0 26 5.8203 26 13V13C26 20.1797 20.1797 26 13 26V26C5.8203 26 0 20.1797 0 13V13Z" fill="white"/>
<path d="M9.18018 12.7259C9.18018 14.2267 9.19894 15.7293 9.17215 17.2301C9.15964 17.948 8.84165 18.5312 8.12527 18.7889C7.4875 19.019 6.84526 18.9334 6.42097 18.4046C6.14043 18.0481 5.97642 17.6141 5.95113 17.1615C5.902 14.8269 5.90379 12.4914 5.92165 10.1559C5.93148 8.90743 6.79077 7.73122 7.93412 7.30228C8.54149 7.07386 9.20288 7.02943 9.83543 7.17457C10.468 7.31972 11.0436 7.64798 11.4901 8.11823C11.8474 8.49188 12.127 8.9761 12.7138 9.0947C12.9084 9.1427 13.1117 9.14286 13.3063 9.09518C13.5009 9.04749 13.6811 8.95339 13.8313 8.82093C14.1117 8.57927 14.3672 8.30907 14.6352 8.05046C16.41 6.31066 19.3935 7.08648 19.9687 9.47726C20.0155 9.75546 20.0397 10.037 20.0411 10.3191C20.0634 11.9501 20.0857 13.5811 20.092 15.2121C20.092 15.9255 20.0634 16.6389 20.0446 17.3523C20.017 18.4046 19.6739 18.7889 19.0585 18.7889C18.5931 18.7889 18.114 18.4046 18.126 17.3675C18.1349 16.5952 18.1956 15.8238 18.2278 15.0489C18.2983 13.3412 18.3805 11.6344 18.4234 9.92581C18.4386 9.30159 18.0518 8.87355 17.5052 8.61851C16.8933 8.33315 16.2895 8.36525 15.7437 8.79686C15.3953 9.06973 15.0702 9.37293 14.7227 9.64758C13.4079 10.6856 12.1538 10.5563 11.0077 9.32388C10.6424 8.9324 10.2235 8.53825 9.75007 8.31085C8.61208 7.76421 7.03731 8.61226 6.8792 9.85893C6.72646 11.0646 6.68001 12.2836 6.61123 13.4991C6.54156 14.7002 6.49958 15.9068 6.4442 17.1053C6.40936 17.8606 6.82382 18.4063 7.51608 18.5098C8.11902 18.599 8.69158 18.1691 8.86755 17.4763C8.91105 17.2892 8.93588 17.0983 8.94169 16.9064C9.01315 15.5126 9.07835 14.1197 9.14624 12.7268L9.18018 12.7259Z" fill="#A8A8A8"/>
<path d="M13 25.1333C6.29894 25.1333 0.866667 19.7011 0.866667 13H-0.866667C-0.866667 20.6583 5.34165 26.8667 13 26.8667V25.1333ZM25.1333 13C25.1333 19.7011 19.7011 25.1333 13 25.1333V26.8667C20.6583 26.8667 26.8667 20.6583 26.8667 13H25.1333ZM13 0.866667C19.7011 0.866667 25.1333 6.29894 25.1333 13H26.8667C26.8667 5.34165 20.6583 -0.866667 13 -0.866667V0.866667ZM13 -0.866667C5.34165 -0.866667 -0.866667 5.34165 -0.866667 13H0.866667C0.866667 6.29894 6.29894 0.866667 13 0.866667V-0.866667Z" fill="#A8A8A8" fill-opacity="0.38"/>
</svg>
