<svg width="20" height="20" viewBox="0 0 20 20" fill="none" xmlns="http://www.w3.org/2000/svg">
	<path d="M10.75 14.99C10.75 14.5758 10.4142 14.24 10 14.24C9.58579 14.24 9.25 14.5758 9.25 14.99H10.75ZM9.25 15C9.25 15.4142 9.58579 15.75 10 15.75C10.4142 15.75 10.75 15.4142 10.75 15H9.25ZM9.25 12C9.25 12.4142 9.58579 12.75 10 12.75C10.4142 12.75 10.75 12.4142 10.75 12H9.25ZM6.27587 6.98654C6.16802 7.38647 6.40479 7.7981 6.80472 7.90595C7.20465 8.0138 7.61628 7.77702 7.72413 7.3771L6.27587 6.98654ZM9.25 14.99V15H10.75V14.99H9.25ZM12.25 7.90909C12.25 8.50706 11.8779 8.82322 11.0775 9.36897C10.4012 9.83006 9.25 10.5419 9.25 12H10.75C10.75 11.4581 11.0988 11.1699 11.9225 10.6083C12.6221 10.1313 13.75 9.40203 13.75 7.90909H12.25ZM10 5.75C11.2867 5.75 12.25 6.73398 12.25 7.90909H13.75C13.75 5.87091 12.0801 4.25 10 4.25V5.75ZM7.72413 7.3771C7.96738 6.47508 8.89173 5.75 10 5.75V4.25C8.26777 4.25 6.70934 5.37913 6.27587 6.98654L7.72413 7.3771ZM18.25 10C18.25 14.5563 14.5563 18.25 10 18.25V19.75C15.3848 19.75 19.75 15.3848 19.75 10H18.25ZM10 18.25C5.44365 18.25 1.75 14.5563 1.75 10H0.25C0.25 15.3848 4.61522 19.75 10 19.75V18.25ZM1.75 10C1.75 5.44365 5.44365 1.75 10 1.75V0.25C4.61522 0.25 0.25 4.61522 0.25 10H1.75ZM10 1.75C14.5563 1.75 18.25 5.44365 18.25 10H19.75C19.75 4.61522 15.3848 0.25 10 0.25V1.75Z" fill="#727F9A" />
</svg>
