<svg width="25" height="20" viewBox="0 0 25 20" fill="none" xmlns="http://www.w3.org/2000/svg">
	<path fill-rule="evenodd" clip-rule="evenodd" d="M24.5 2.35748C23.6177 2.74945 22.6681 3.01343 21.6722 3.13262C22.6889 2.52306 23.4697 1.55832 23.8368 0.408802C22.8865 0.973564 21.8314 1.38234 20.7107 1.60392C19.8123 0.647188 18.5316 0.0488281 17.1165 0.0488281C14.3975 0.0488281 12.1928 2.25348 12.1928 4.9725C12.1928 5.35807 12.2368 5.73405 12.3208 6.09482C8.22829 5.89004 4.60053 3.92937 2.17189 0.950367C1.74792 1.67752 1.50553 2.52307 1.50553 3.42541C1.50553 5.1333 2.37347 6.6404 3.69579 7.52354C2.88784 7.49794 2.12949 7.27635 1.46473 6.90757V6.96917C1.46473 9.35541 3.16302 11.3449 5.41407 11.7984C5.0013 11.9104 4.56613 11.9712 4.11736 11.9712C3.79978 11.9712 3.491 11.94 3.19022 11.8824C3.81658 13.8383 5.63566 15.2622 7.78991 15.3022C6.10523 16.6221 3.98217 17.4101 1.67512 17.4101C1.27675 17.4101 0.884774 17.3869 0.5 17.3405C2.67905 18.7372 5.26688 19.5531 8.0475 19.5531C17.1037 19.5531 22.0562 12.0504 22.0562 5.54446C22.0562 5.33087 22.0522 5.11809 22.0418 4.90771C23.0049 4.21175 23.84 3.34461 24.5 2.35748Z" fill="white" />
</svg>
