<svg width="25" height="17" viewBox="0 0 25 17" fill="none" xmlns="http://www.w3.org/2000/svg">
<path d="M2.75977 11.3325L7.27807 16.9625L12.0569 13.1273L21.3056 5.70491L16.7873 0.0748814L6.24683 8.53402L2.75977 11.3325Z" fill="url(#paint0_linear_9202_175428)"/>
<path d="M2.75977 5.70508L7.27807 0.0750526L17.8686 8.57436L21.3056 11.3327L16.7873 16.9627L12.0373 13.1506L2.75977 5.70508Z" fill="url(#paint1_linear_9202_175428)"/>
<rect x="16.7832" y="-0.000976562" width="7.21888" height="16.9644" fill="url(#paint2_linear_9202_175428)"/>
<rect x="0.078125" y="0.034668" width="7.21888" height="16.9644" fill="#C4C4C4"/>
<rect x="0.078125" y="0.034668" width="7.21888" height="16.9644" fill="#C4C4C4"/>
<rect x="0.078125" y="0.034668" width="7.21888" height="16.9644" fill="url(#paint3_linear_9202_175428)"/>
<defs>
<linearGradient id="paint0_linear_9202_175428" x1="21.3057" y1="-2.44314" x2="6.72796" y2="15.0749" gradientUnits="userSpaceOnUse">
<stop offset="0.249143" stop-color="#632DFF"/>
<stop offset="0.460038" stop-color="#00FF47"/>
<stop offset="0.654677" stop-color="#00FF38"/>
<stop offset="0.871509" stop-color="#77FF37" stop-opacity="0"/>
</linearGradient>
<linearGradient id="paint1_linear_9202_175428" x1="18.3521" y1="21.6239" x2="6.2368" y2="6.23418" gradientUnits="userSpaceOnUse">
<stop offset="0.134504" stop-color="#00FFF0" stop-opacity="0.28"/>
<stop offset="0.536841" stop-color="#2CD0F4" stop-opacity="0"/>
<stop offset="0.538619" stop-color="#18FF59"/>
<stop offset="0.770143" stop-color="#9EFF7B"/>
<stop offset="1" stop-color="#FFDF35"/>
</linearGradient>
<linearGradient id="paint2_linear_9202_175428" x1="22.6798" y1="18.497" x2="21.8724" y2="-0.000978188" gradientUnits="userSpaceOnUse">
<stop offset="0.104222" stop-color="#27D8FF"/>
<stop offset="0.380622" stop-color="#2EB4FF"/>
<stop offset="0.999862" stop-color="#8F00FF"/>
</linearGradient>
<linearGradient id="paint3_linear_9202_175428" x1="6.31705" y1="0.034668" x2="0.996149" y2="16.999" gradientUnits="userSpaceOnUse">
<stop stop-color="#FAFF00"/>
<stop offset="0.0789289" stop-color="#FAFF00"/>
<stop offset="0.393536" stop-color="#FFC700"/>
<stop offset="1" stop-color="#FF1B6D"/>
</linearGradient>
</defs>
</svg>
