<svg width="13" height="12" viewBox="0 0 13 12" fill="none" xmlns="http://www.w3.org/2000/svg">
    <path d="M4.37361 5.99961H1.99979C1.54164 5.99961 1.16895 5.62692 1.16895 5.16877V2.79494C1.16895 2.33679 1.54164 1.9641 1.99979 1.9641C2.45793 1.9641 2.83063 2.33679 2.83063 2.79494V2.87446C3.76829 1.84778 5.1 1.25195 6.51006 1.25195C8.02812 1.25195 9.4453 1.93205 10.3972 3.11778C10.5574 3.316 10.618 3.57237 10.5634 3.82044C10.51 4.06731 10.3485 4.27384 10.1218 4.38778L10.0922 4.40202C9.7622 4.56819 9.35272 4.47442 9.1189 4.17888C8.48508 3.37534 7.53437 2.91363 6.51006 2.91363C5.41216 2.91363 4.39973 3.45012 3.78253 4.33793H4.37361C4.83176 4.33793 5.20445 4.71062 5.20445 5.16877C5.20445 5.62692 4.83176 5.99961 4.37361 5.99961ZM11.0013 5.99961H8.62751C8.16936 5.99961 7.79667 6.3723 7.79667 6.83045C7.79667 7.2886 8.16936 7.66129 8.62751 7.66129H9.2186C8.6014 8.5491 7.58896 9.08559 6.49107 9.08559C5.46795 9.08559 4.51723 8.62388 3.88223 7.82034C3.64841 7.52479 3.24011 7.43103 2.90896 7.5972L2.87929 7.61144C2.65259 7.72538 2.49117 7.93309 2.43776 8.17878C2.38435 8.42685 2.44488 8.68204 2.60392 8.88144C3.55583 10.0672 4.973 10.7473 6.49107 10.7473C7.90112 10.7473 9.23284 10.1514 10.1705 9.12475V9.20428C10.1705 9.66243 10.5432 10.0351 11.0013 10.0351C11.4595 10.0351 11.8322 9.66243 11.8322 9.20428V6.83045C11.8322 6.3723 11.4595 5.99961 11.0013 5.99961Z" fill="white"/>
</svg>
