<svg width="20" height="18" viewBox="0 0 20 18" fill="none" xmlns="http://www.w3.org/2000/svg">
<path d="M7.92 4L10.39 6.47" stroke="#AAAAAA" stroke-width="1.5" stroke-linecap="round" stroke-linejoin="round"/>
<path d="M7.92 3.99978L10.39 1.52979" stroke="#AAAAAA" stroke-width="1.5" stroke-linecap="round" stroke-linejoin="round"/>
<path d="M12.05 13.9998L9.59 11.5298" stroke="#AAAAAA" stroke-width="1.5" stroke-linecap="round" stroke-linejoin="round"/>
<path d="M12.05 14L9.59 16.47" stroke="#AAAAAA" stroke-width="1.5" stroke-linecap="round" stroke-linejoin="round"/>
<path d="M12.05 14H5.75C4.42392 14 3.15215 13.4732 2.21447 12.5355C1.27678 11.5979 0.75 10.3261 0.75 9C0.75 7.67392 1.27678 6.40215 2.21447 5.46447C3.15215 4.52678 4.42392 4 5.75 4" stroke="#AAAAAA" stroke-width="1.5" stroke-linecap="round" stroke-linejoin="round"/>
<path d="M7.92 4H14.25C15.5761 4 16.8479 4.52678 17.7855 5.46447C18.7232 6.40215 19.25 7.67392 19.25 9C19.25 10.3261 18.7232 11.5979 17.7855 12.5355C16.8479 13.4732 15.5761 14 14.25 14" stroke="#AAAAAA" stroke-width="1.5" stroke-linecap="round" stroke-linejoin="round"/>
</svg>
