<svg width="20" height="16" viewBox="0 0 20 16" fill="none" xmlns="http://www.w3.org/2000/svg">
<path d="M17.0701 5.33998L19.2501 3.27998L17.0701 1.22998" stroke="#00AAFF" stroke-width="1.5" stroke-linecap="round" stroke-linejoin="round"/>
<path d="M17.0701 14.7702L19.2501 12.7202L17.0701 10.6602" stroke="#00AAFF" stroke-width="1.5" stroke-linecap="round" stroke-linejoin="round"/>
<path d="M0.75 3.27979H1.39C2.19759 3.28059 2.99303 3.4765 3.70862 3.85084C4.42421 4.22518 5.03877 4.76686 5.5 5.42978L9.05 10.5498C9.50971 11.2142 10.124 11.7571 10.8399 12.1316C11.5558 12.5061 12.352 12.7011 13.16 12.6998H18.89" stroke="#00AAFF" stroke-width="1.5" stroke-linecap="round" stroke-linejoin="round"/>
<path d="M0.75 12.7198H1.39C2.19759 12.719 2.99303 12.5231 3.70862 12.1488C4.42421 11.7744 5.03877 11.2327 5.5 10.5698L9.05 5.44981C9.50971 4.78536 10.124 4.24253 10.8399 3.86801C11.5558 3.4935 12.352 3.29851 13.16 3.29981H18.66" stroke="#00AAFF" stroke-width="1.5" stroke-linecap="round" stroke-linejoin="round"/>
</svg>
