<svg width="16" height="17" viewBox="0 0 16 17" fill="none" xmlns="http://www.w3.org/2000/svg">
<g clip-path="url(#clip0_10876_31212)">
<path d="M1.00065 11.0376C0.631984 11.0376 0.333984 10.739 0.333984 10.371V7.03764C0.333984 6.66964 0.631984 6.37097 1.00065 6.37097C1.36932 6.37097 1.66732 6.66964 1.66732 7.03764V10.371C1.66732 10.739 1.36932 11.0376 1.00065 11.0376Z" fill="#65CB63"/>
<path d="M3.00065 13.7045C2.63198 13.7045 2.33398 13.4058 2.33398 13.0378V4.37113C2.33398 4.00313 2.63198 3.70447 3.00065 3.70447C3.36932 3.70447 3.66732 4.00313 3.66732 4.37113V13.0378C3.66732 13.4058 3.36932 13.7045 3.00065 13.7045Z" fill="#65CB63"/>
<path d="M5.00065 16.3708C4.63198 16.3708 4.33398 16.0721 4.33398 15.7041V1.70414C4.33398 1.33614 4.63198 1.03748 5.00065 1.03748C5.36932 1.03748 5.66732 1.33614 5.66732 1.70414V15.7041C5.66732 16.0721 5.36932 16.3708 5.00065 16.3708Z" fill="#65CB63"/>
<path d="M7.00065 15.7045C6.63198 15.7045 6.33398 15.4058 6.33398 15.0378V2.37113C6.33398 2.00313 6.63198 1.70447 7.00065 1.70447C7.36932 1.70447 7.66732 2.00313 7.66732 2.37113V15.0378C7.66732 15.4058 7.36932 15.7045 7.00065 15.7045Z" fill="#65CB63"/>
<path d="M9.00065 13.0376C8.63198 13.0376 8.33398 12.739 8.33398 12.371V5.03764C8.33398 4.66964 8.63198 4.37097 9.00065 4.37097C9.36932 4.37097 9.66732 4.66964 9.66732 5.03764V12.371C9.66732 12.739 9.36932 13.0376 9.00065 13.0376Z" fill="#65CB63"/>
<path d="M11.0007 15.7045C10.632 15.7045 10.334 15.4058 10.334 15.0378V2.37113C10.334 2.00313 10.632 1.70447 11.0007 1.70447C11.3693 1.70447 11.6673 2.00313 11.6673 2.37113V15.0378C11.6673 15.4058 11.3693 15.7045 11.0007 15.7045Z" fill="#65CB63"/>
<path d="M13.0007 13.0376C12.632 13.0376 12.334 12.739 12.334 12.371V5.03764C12.334 4.66964 12.632 4.37097 13.0007 4.37097C13.3693 4.37097 13.6673 4.66964 13.6673 5.03764V12.371C13.6673 12.739 13.3693 13.0376 13.0007 13.0376Z" fill="#65CB63"/>
<path d="M15.0007 11.0376C14.632 11.0376 14.334 10.739 14.334 10.371V7.03764C14.334 6.66964 14.632 6.37097 15.0007 6.37097C15.3693 6.37097 15.6673 6.66964 15.6673 7.03764V10.371C15.6673 10.739 15.3693 11.0376 15.0007 11.0376Z" fill="#65CB63"/>
</g>
<defs>
<clipPath id="clip0_10876_31212">
<rect width="16" height="16" fill="white" transform="translate(0 0.704468)"/>
</clipPath>
</defs>
</svg>
