<svg width="1440" height="94" viewBox="0 0 1440 94" fill="none" xmlns="http://www.w3.org/2000/svg">
<path d="M5 62C4.73478 62 4.48043 61.664 4.29289 61.0659C4.10536 60.4679 4 59.6567 4 58.811V-82.811C4 -83.6568 4.10536 -84.4679 4.29289 -85.066C4.48043 -85.664 4.73478 -86 5 -86C5.26522 -86 5.51957 -85.664 5.70711 -85.066C5.89464 -84.4679 6 -83.6568 6 -82.811V58.811C6 59.2298 5.97413 59.6445 5.92388 60.0314C5.87362 60.4183 5.79997 60.7698 5.70711 61.0659C5.61425 61.3621 5.50401 61.597 5.38268 61.7572C5.26136 61.9175 5.13132 62 5 62Z" fill="#0D59EE"/>
<path d="M12 65C11.7348 65 11.4804 64.6646 11.2929 64.0674C11.1054 63.4702 11 62.6603 11 61.8158V-85.8158C11 -86.6603 11.1054 -87.4702 11.2929 -88.0674C11.4804 -88.6645 11.7348 -89 12 -89C12.2652 -89 12.5196 -88.6645 12.7071 -88.0674C12.8946 -87.4702 13 -86.6603 13 -85.8158V61.8158C13 62.6603 12.8946 63.4702 12.7071 64.0674C12.5196 64.6646 12.2652 65 12 65Z" fill="#0D59EE"/>
<path d="M19 43C18.7348 43 18.4804 42.6628 18.2929 42.0625C18.1054 41.4623 18 40.6482 18 39.7993V-63.7993C18 -64.6482 18.1054 -65.4623 18.2929 -66.0625C18.4804 -66.6628 18.7348 -67 19 -67C19.2652 -67 19.5196 -66.6628 19.7071 -66.0625C19.8946 -65.4623 20 -64.6482 20 -63.7993V39.7993C20 40.2197 19.9741 40.6359 19.9239 41.0242C19.8736 41.4125 19.8 41.7653 19.7071 42.0625C19.6142 42.3597 19.504 42.5955 19.3827 42.7563C19.2614 42.9172 19.1313 43 19 43Z" fill="#0D59EE"/>
<path d="M25.5 45C25.1022 45 24.7206 44.6647 24.4393 44.0678C24.158 43.4709 24 42.6614 24 41.8173V-65.8173C24 -66.6614 24.158 -67.4709 24.4393 -68.0678C24.7206 -68.6647 25.1022 -69 25.5 -69C25.8978 -69 26.2794 -68.6647 26.5607 -68.0678C26.842 -67.4709 27 -66.6614 27 -65.8173V41.8173C27 42.6614 26.842 43.4709 26.5607 44.0678C26.2794 44.6647 25.8978 45 25.5 45Z" fill="#0D59EE"/>
<path d="M32.0011 33C31.7356 33 31.481 32.6618 31.2932 32.0598C31.1055 31.4577 31 30.6412 31 29.7899V-53.7899C31 -54.6413 31.1055 -55.4578 31.2932 -56.0598C31.481 -56.6618 31.7356 -57 32.0011 -57C32.2663 -56.9981 32.5203 -56.659 32.7076 -56.0572C32.8948 -55.4554 33 -54.64 33 -53.7899V29.7899C33 30.64 32.8948 31.4554 32.7076 32.0572C32.5203 32.659 32.2663 32.9981 32.0011 33Z" fill="#0D59EE"/>
<path d="M39.0011 35C38.7356 35 38.481 34.6611 38.2932 34.0578C38.1055 33.4545 38 32.6363 38 31.7831V-55.7831C38 -56.6362 38.1055 -57.4545 38.2932 -58.0578C38.481 -58.6611 38.7356 -59 39.0011 -59C39.2663 -58.9981 39.5203 -58.6583 39.7076 -58.0552C39.8948 -57.4521 40 -56.635 40 -55.7831V31.7831C40 32.635 39.8948 33.4521 39.7076 34.0552C39.5203 34.6583 39.2663 34.9981 39.0011 35Z" fill="#0D59EE"/>
<path d="M46 51C45.7348 51 45.4804 50.662 45.2929 50.0603C45.1054 49.4586 45 48.6425 45 47.7916V-71.7916C45 -72.6426 45.1054 -73.4586 45.2929 -74.0603C45.4804 -74.662 45.7348 -75 46 -75C46.2652 -75 46.5196 -74.662 46.7071 -74.0603C46.8946 -73.4586 47 -72.6426 47 -71.7916V47.7916C47 48.6425 46.8946 49.4586 46.7071 50.0603C46.5196 50.662 46.2652 51 46 51Z" fill="#0D59EE"/>
<path d="M53 53C52.7348 53 52.4804 52.6654 52.2929 52.0698C52.1054 51.4743 52 50.6665 52 49.8242V-73.8241C52 -74.6664 52.1054 -75.4742 52.2929 -76.0698C52.4804 -76.6654 52.7348 -77 53 -77C53.2652 -77 53.5196 -76.6654 53.7071 -76.0698C53.8946 -75.4742 54 -74.6664 54 -73.8241V49.8242C54 50.6665 53.8946 51.4743 53.7071 52.0698C53.5196 52.6654 53.2652 53 53 53Z" fill="#0D59EE"/>
<path d="M60 14C59.7348 14 59.4804 13.6677 59.2929 13.0763C59.1054 12.4849 59 11.6827 59 10.8463V-34.8463C59 -35.6827 59.1054 -36.4849 59.2929 -37.0763C59.4804 -37.6678 59.7348 -38 60 -38C60.2652 -38 60.5196 -37.6678 60.7071 -37.0763C60.8946 -36.4849 61 -35.6827 61 -34.8463V10.8463C61 11.2604 60.9741 11.6706 60.9239 12.0532C60.8736 12.4358 60.8 12.7834 60.7071 13.0763C60.6142 13.3691 60.504 13.6014 60.3827 13.7599C60.2614 13.9184 60.1313 14 60 14Z" fill="#0D59EE"/>
<path d="M67 15C66.7348 15 66.4804 14.6689 66.2929 14.0796C66.1054 13.4903 66 12.691 66 11.8576V-35.8575C66 -36.691 66.1054 -37.4903 66.2929 -38.0796C66.4804 -38.6689 66.7348 -39 67 -39C67.2652 -39 67.5196 -38.6689 67.7071 -38.0796C67.8946 -37.4903 68 -36.691 68 -35.8575V11.8576C68 12.691 67.8946 13.4903 67.7071 14.0796C67.5196 14.6689 67.2652 15 67 15Z" fill="#0D59EE"/>
<path d="M74 23C73.7348 23 73.4804 22.6622 73.2929 22.0611C73.1054 21.4599 73 20.6445 73 19.7943V-43.7943C73 -44.6445 73.1054 -45.4599 73.2929 -46.0611C73.4804 -46.6622 73.7348 -47 74 -47C74.2652 -47 74.5196 -46.6622 74.7071 -46.0611C74.8946 -45.4599 75 -44.6445 75 -43.7943V19.7943C75 20.2153 74.9741 20.6322 74.9239 21.0211C74.8736 21.41 74.8 21.7634 74.7071 22.0611C74.6142 22.3587 74.504 22.5949 74.3827 22.756C74.2614 22.9171 74.1313 23 74 23Z" fill="#0D59EE"/>
<path d="M81 24C80.7348 24 80.4804 23.6667 80.2929 23.0733C80.1054 22.48 80 21.6753 80 20.8361V-44.8361C80 -45.6752 80.1054 -46.48 80.2929 -47.0733C80.4804 -47.6666 80.7348 -48 81 -48C81.2652 -48 81.5196 -47.6666 81.7071 -47.0733C81.8946 -46.48 82 -45.6752 82 -44.8361V20.8361C82 21.6753 81.8946 22.48 81.7071 23.0733C81.5196 23.6667 81.2652 24 81 24Z" fill="#0D59EE"/>
<path d="M87.9989 29C87.7337 28.9981 87.4797 28.66 87.2924 28.06C87.1052 27.46 87 26.647 87 25.7994V-49.8067C87 -50.6536 87.1052 -51.4659 87.2926 -52.0647C87.4799 -52.6636 87.7339 -53 87.9989 -53C88.1302 -53.0009 88.2604 -52.9191 88.3818 -52.759C88.5033 -52.599 88.6136 -52.3639 88.7066 -52.0673C88.7996 -51.7707 88.8734 -51.4183 88.9238 -51.0304C88.9741 -50.6425 89 -50.2267 89 -49.8067V25.7994C89 26.2197 88.9741 26.6359 88.9238 27.0242C88.8735 27.4126 88.7997 27.7654 88.7068 28.0626C88.6138 28.3598 88.5034 28.5955 88.382 28.7563C88.2605 28.9172 88.1303 29 87.9989 29Z" fill="#0D59EE"/>
<path d="M93.9989 31C93.7337 30.9981 93.4797 30.6579 93.2924 30.0541C93.1052 29.4503 93 28.6322 93 27.7793V-51.7866C93.0006 -52.6383 93.106 -53.4545 93.2932 -54.0567C93.4804 -54.6589 93.7341 -54.9981 93.9989 -55C94.264 -55 94.5183 -54.6617 94.706 -54.0593C94.8937 -53.4568 94.9994 -52.6395 95 -51.7866V27.7793C95 28.6335 94.8945 29.4527 94.7068 30.0567C94.519 30.6607 94.2644 31 93.9989 31Z" fill="#0D59EE"/>
<path d="M101 7C100.735 7 100.48 6.66284 100.293 6.06272C100.105 5.46261 100 4.64868 100 3.79998V-27.8C100 -28.6487 100.105 -29.4626 100.293 -30.0628C100.48 -30.6629 100.735 -31 101 -31C101.265 -31 101.52 -30.6629 101.707 -30.0628C101.895 -29.4626 102 -28.6487 102 -27.8V3.79998C102 4.22021 101.974 4.63635 101.924 5.02459C101.874 5.41283 101.8 5.76558 101.707 6.06272C101.614 6.35987 101.504 6.59558 101.383 6.75639C101.261 6.91721 101.131 7 101 7Z" fill="#0D59EE"/>
<path d="M108 8C107.735 8 107.48 7.65948 107.293 7.0533C107.105 6.44712 107 5.62497 107 4.7677V-28.775C107 -29.1991 107.026 -29.6191 107.076 -30.0109C107.126 -30.4026 107.2 -30.7584 107.293 -31.058C107.386 -31.3576 107.496 -31.595 107.617 -31.7566C107.739 -31.9183 107.869 -32.001 108 -32C108.131 -32.001 108.261 -31.9183 108.383 -31.7566C108.504 -31.595 108.614 -31.3576 108.707 -31.058C108.8 -30.7584 108.874 -30.4026 108.924 -30.0109C108.974 -29.6191 109 -29.1991 109 -28.775V4.7677C109 5.19218 108.974 5.61248 108.924 6.00464C108.874 6.3968 108.8 6.75315 108.707 7.0533C108.614 7.35345 108.504 7.59154 108.383 7.75397C108.261 7.91642 108.131 8 108 8Z" fill="#0D59EE"/>
<path d="M115 14C114.735 14 114.48 13.6677 114.293 13.0763C114.105 12.4849 114 11.6827 114 10.8463V-34.8463C114 -35.6827 114.105 -36.4849 114.293 -37.0763C114.48 -37.6678 114.735 -38 115 -38C115.265 -38 115.52 -37.6678 115.707 -37.0763C115.895 -36.4849 116 -35.6827 116 -34.8463V10.8463C116 11.2604 115.974 11.6706 115.924 12.0532C115.874 12.4358 115.8 12.7834 115.707 13.0763C115.614 13.3691 115.504 13.6014 115.383 13.7599C115.261 13.9184 115.131 14 115 14Z" fill="#0D59EE"/>
<path d="M122 15C121.735 15 121.48 14.6689 121.293 14.0796C121.105 13.4903 121 12.691 121 11.8576V-35.8575C121 -36.691 121.105 -37.4903 121.293 -38.0796C121.48 -38.6689 121.735 -39 122 -39C122.265 -39 122.52 -38.6689 122.707 -38.0796C122.895 -37.4903 123 -36.691 123 -35.8575V11.8576C123 12.691 122.895 13.4903 122.707 14.0796C122.52 14.6689 122.265 15 122 15Z" fill="#0D59EE"/>
<path d="M129 33C128.735 33 128.48 32.6661 128.293 32.0719C128.105 31.4776 128 30.6716 128 29.8312V-53.8312C128 -54.6716 128.105 -55.4776 128.293 -56.0719C128.48 -56.6661 128.735 -57 129 -57C129.265 -57 129.52 -56.6661 129.707 -56.0719C129.895 -55.4776 130 -54.6716 130 -53.8312V29.8312C130 30.2473 129.974 30.6594 129.924 31.0439C129.874 31.4283 129.8 31.7776 129.707 32.0719C129.614 32.3661 129.504 32.5995 129.383 32.7588C129.261 32.918 129.131 33 129 33Z" fill="#0D59EE"/>
<path d="M136 35C135.735 35 135.48 34.6655 135.293 34.07C135.105 33.4744 135 32.6668 135 31.8246V-55.8246C135 -56.6667 135.105 -57.4744 135.293 -58.0699C135.48 -58.6654 135.735 -59 136 -59C136.265 -59 136.52 -58.6654 136.707 -58.0699C136.895 -57.4744 137 -56.6667 137 -55.8246V31.8246C137 32.6668 136.895 33.4744 136.707 34.07C136.52 34.6655 136.265 35 136 35Z" fill="#0D59EE"/>
<path d="M142.999 43C142.734 42.9981 142.48 42.66 142.292 42.06C142.105 41.4599 142 40.6469 142 39.7993V-63.7993C142 -64.647 142.105 -65.4599 142.292 -66.06C142.48 -66.66 142.734 -66.9981 142.999 -67C143.264 -67 143.519 -66.6628 143.707 -66.0625C143.895 -65.4623 144 -64.6482 144 -63.7993V39.7993C144 40.2197 143.974 40.6359 143.924 41.0242C143.873 41.4125 143.8 41.7653 143.707 42.0625C143.614 42.3597 143.503 42.5955 143.382 42.7563C143.261 42.9172 143.13 43 142.999 43Z" fill="#0D59EE"/>
<path d="M149.999 45C149.734 44.9981 149.48 44.6619 149.292 44.0653C149.105 43.4686 149 42.6601 149 41.8173V-65.8173C149 -66.6601 149.105 -67.4686 149.292 -68.0653C149.48 -68.6619 149.734 -68.9981 149.999 -69C150.264 -69 150.519 -68.6647 150.707 -68.0678C150.895 -67.4709 151 -66.6614 151 -65.8173V41.8173C151 42.6614 150.895 43.4709 150.707 44.0678C150.519 44.6647 150.264 45 149.999 45Z" fill="#0D59EE"/>
<path d="M156.5 23C156.102 23 155.721 22.6622 155.439 22.0611C155.158 21.4599 155 20.6445 155 19.7943V-43.7943C155 -44.6445 155.158 -45.4599 155.439 -46.0611C155.721 -46.6622 156.102 -47 156.5 -47C156.898 -47 157.279 -46.6622 157.561 -46.0611C157.842 -45.4599 158 -44.6445 158 -43.7943V19.7943C158 20.2153 157.961 20.6322 157.886 21.0211C157.81 21.41 157.7 21.7634 157.561 22.0611C157.421 22.3587 157.256 22.5949 157.074 22.756C156.892 22.9171 156.697 23 156.5 23Z" fill="#0D59EE"/>
<path d="M163 24C162.735 24 162.48 23.6667 162.293 23.0733C162.105 22.48 162 21.6753 162 20.8361V-44.8361C162 -45.6752 162.105 -46.48 162.293 -47.0733C162.48 -47.6666 162.735 -48 163 -48C163.265 -48 163.52 -47.6666 163.707 -47.0733C163.895 -46.48 164 -45.6752 164 -44.8361V20.8361C164 21.6753 163.895 22.48 163.707 23.0733C163.52 23.6667 163.265 24 163 24Z" fill="#0D59EE"/>
<path d="M170 14C169.735 14 169.48 13.6677 169.293 13.0763C169.105 12.4849 169 11.6827 169 10.8463V-34.8463C169 -35.6827 169.105 -36.4849 169.293 -37.0763C169.48 -37.6678 169.735 -38 170 -38C170.265 -38 170.52 -37.6678 170.707 -37.0763C170.895 -36.4849 171 -35.6827 171 -34.8463V10.8463C171 11.2604 170.974 11.6706 170.924 12.0532C170.874 12.4358 170.8 12.7834 170.707 13.0763C170.614 13.3691 170.504 13.6014 170.383 13.7599C170.261 13.9184 170.131 14 170 14Z" fill="#0D59EE"/>
<path d="M177 15C176.735 15 176.48 14.6689 176.293 14.0796C176.105 13.4903 176 12.691 176 11.8576V-35.8575C176 -36.691 176.105 -37.4903 176.293 -38.0796C176.48 -38.6689 176.735 -39 177 -39C177.265 -39 177.52 -38.6689 177.707 -38.0796C177.895 -37.4903 178 -36.691 178 -35.8575V11.8576C178 12.691 177.895 13.4903 177.707 14.0796C177.52 14.6689 177.265 15 177 15Z" fill="#0D59EE"/>
<path d="M184 33C183.735 33 183.48 32.6618 183.293 32.0598C183.105 31.4577 183 30.6412 183 29.7899V-53.7899C183 -54.6413 183.105 -55.4578 183.293 -56.0598C183.48 -56.6618 183.735 -57 184 -57C184.265 -57 184.52 -56.6618 184.707 -56.0598C184.895 -55.4578 185 -54.6413 185 -53.7899V29.7899C185 30.2114 184.974 30.6289 184.924 31.0183C184.874 31.4078 184.8 31.7617 184.707 32.0598C184.614 32.3578 184.504 32.5943 184.383 32.7556C184.261 32.9169 184.131 33 184 33Z" fill="#0D59EE"/>
<path d="M191 35C190.735 35 190.48 34.6611 190.293 34.0578C190.105 33.4545 190 32.6363 190 31.7831V-55.7831C190 -56.6362 190.105 -57.4545 190.293 -58.0578C190.48 -58.6611 190.735 -59 191 -59C191.265 -59 191.52 -58.6611 191.707 -58.0578C191.895 -57.4545 192 -56.6362 192 -55.7831V31.7831C192 32.6363 191.895 33.4545 191.707 34.0578C191.52 34.6611 191.265 35 191 35Z" fill="#0D59EE"/>
<path d="M197.999 62C197.867 62 197.737 61.9174 197.616 61.7571C197.495 61.5967 197.385 61.3617 197.292 61.0655C197.199 60.7693 197.125 60.4177 197.075 60.0308C197.025 59.6439 197 59.2294 197 58.811V-82.811C197 -83.2294 197.025 -83.6439 197.075 -84.0308C197.125 -84.4177 197.199 -84.7693 197.292 -85.0655C197.385 -85.3617 197.495 -85.5968 197.616 -85.7571C197.737 -85.9175 197.867 -86 197.999 -86C198.264 -86 198.519 -85.664 198.707 -85.066C198.895 -84.4679 199 -83.6568 199 -82.811V58.811C199 59.2298 198.974 59.6445 198.924 60.0314C198.873 60.4183 198.8 60.7698 198.707 61.0659C198.614 61.3621 198.503 61.597 198.382 61.7572C198.261 61.9175 198.13 62 197.999 62Z" fill="#0D59EE"/>
<path d="M204.999 65C204.867 65 204.737 64.9176 204.616 64.7575C204.495 64.5974 204.385 64.3627 204.292 64.067C204.199 63.7712 204.125 63.4201 204.075 63.0338C204.025 62.6475 204 62.2336 204 61.8158V-85.8158C204 -86.2336 204.025 -86.6475 204.075 -87.0338C204.125 -87.4201 204.199 -87.7712 204.292 -88.0669C204.385 -88.3627 204.495 -88.5974 204.616 -88.7575C204.737 -88.9176 204.867 -89 204.999 -89C205.264 -89 205.519 -88.6645 205.707 -88.0674C205.895 -87.4702 206 -86.6603 206 -85.8158V61.8158C206 62.6603 205.895 63.4702 205.707 64.0674C205.519 64.6646 205.264 65 204.999 65Z" fill="#0D59EE"/>
<path d="M212.001 51C211.736 51 211.481 50.662 211.293 50.0603C211.105 49.4586 211 48.6425 211 47.7916V-71.7916C211 -72.6426 211.105 -73.4586 211.293 -74.0603C211.481 -74.662 211.736 -75 212.001 -75C212.132 -75 212.263 -74.9169 212.384 -74.7556C212.505 -74.5943 212.615 -74.3579 212.708 -74.0599C212.801 -73.7618 212.875 -73.4081 212.925 -73.0189C212.975 -72.6297 213 -72.2126 213 -71.7916V47.7916C213 48.2126 212.975 48.6297 212.925 49.0189C212.875 49.4081 212.801 49.7618 212.708 50.0598C212.615 50.3578 212.505 50.5943 212.384 50.7556C212.263 50.9169 212.132 51 212.001 51Z" fill="#0D59EE"/>
<path d="M219.001 53C218.736 53 218.481 52.6654 218.293 52.0698C218.105 51.4743 218 50.6665 218 49.8242V-73.8241C218 -74.6664 218.105 -75.4742 218.293 -76.0698C218.481 -76.6654 218.736 -77 219.001 -77C219.132 -77 219.263 -76.9178 219.384 -76.7581C219.505 -76.5984 219.615 -76.3644 219.708 -76.0694C219.801 -75.7744 219.875 -75.4242 219.925 -75.039C219.975 -74.6537 220 -74.2409 220 -73.8241V49.8242C220 50.2409 219.975 50.6537 219.925 51.039C219.875 51.4242 219.801 51.7744 219.708 52.0694C219.615 52.3644 219.505 52.5984 219.384 52.7581C219.263 52.9178 219.132 53 219.001 53Z" fill="#0D59EE"/>
<path d="M225 29C224.735 29 224.48 28.6628 224.293 28.0626C224.105 27.4623 224 26.6483 224 25.7994V-49.8067C224 -50.2267 224.026 -50.6425 224.076 -51.0304C224.126 -51.4183 224.2 -51.7707 224.293 -52.0673C224.386 -52.3639 224.496 -52.599 224.617 -52.759C224.739 -52.9191 224.869 -53.0009 225 -53C225.131 -53.0009 225.261 -52.9191 225.383 -52.759C225.504 -52.599 225.614 -52.3639 225.707 -52.0673C225.8 -51.7707 225.874 -51.4183 225.924 -51.0304C225.974 -50.6425 226 -50.2267 226 -49.8067V25.7994C226 26.2197 225.974 26.6359 225.924 27.0242C225.874 27.4126 225.8 27.7654 225.707 28.0626C225.614 28.3598 225.504 28.5955 225.383 28.7563C225.261 28.9172 225.131 29 225 29Z" fill="#0D59EE"/>
<path d="M232 31C231.735 31 231.48 30.6607 231.293 30.0567C231.105 29.4527 231 28.6335 231 27.7793V-51.7866C231.001 -52.6395 231.106 -53.4568 231.294 -54.0593C231.481 -54.6617 231.735 -55 232 -55C232.265 -55 232.519 -54.6617 232.706 -54.0593C232.894 -53.4568 232.999 -52.6395 233 -51.7866V27.7793C233 28.6335 232.895 29.4527 232.707 30.0567C232.52 30.6607 232.265 31 232 31Z" fill="#0D59EE"/>
<path d="M239 43C238.735 43 238.48 42.6628 238.293 42.0625C238.105 41.4623 238 40.6482 238 39.7993V-63.7993C238 -64.6482 238.105 -65.4623 238.293 -66.0625C238.48 -66.6628 238.735 -67 239 -67C239.265 -67 239.52 -66.6628 239.707 -66.0625C239.895 -65.4623 240 -64.6482 240 -63.7993V39.7993C240 40.2197 239.974 40.6359 239.924 41.0242C239.874 41.4125 239.8 41.7653 239.707 42.0625C239.614 42.3597 239.504 42.5955 239.383 42.7563C239.261 42.9172 239.131 43 239 43Z" fill="#0D59EE"/>
<path d="M246 45C245.735 45 245.48 44.6647 245.293 44.0678C245.105 43.4709 245 42.6614 245 41.8173V-65.8173C245 -66.6614 245.105 -67.4709 245.293 -68.0678C245.48 -68.6647 245.735 -69 246 -69C246.265 -69 246.52 -68.6647 246.707 -68.0678C246.895 -67.4709 247 -66.6614 247 -65.8173V41.8173C247 42.6614 246.895 43.4709 246.707 44.0678C246.52 44.6647 246.265 45 246 45Z" fill="#0D59EE"/>
<path d="M252.999 20C252.868 20 252.737 19.9181 252.616 19.7591C252.495 19.6001 252.385 19.367 252.292 19.0732C252.199 18.7795 252.125 18.4308 252.075 18.0471C252.025 17.6634 252 17.2523 252 16.8374V-40.8374C252 -41.2524 252.025 -41.6635 252.075 -42.0471C252.125 -42.4308 252.199 -42.7795 252.292 -43.0733C252.385 -43.367 252.495 -43.6001 252.616 -43.7591C252.737 -43.9182 252.868 -44 252.999 -44C253.264 -44 253.519 -43.6668 253.707 -43.0737C253.895 -42.4806 254 -41.6762 254 -40.8374V16.8374C254 17.2527 253.974 17.664 253.924 18.0477C253.873 18.4314 253.8 18.78 253.707 19.0737C253.614 19.3673 253.503 19.6003 253.382 19.7592C253.261 19.9182 253.13 20 252.999 20Z" fill="#0D59EE"/>
<path d="M259.999 22C259.868 22 259.737 21.9166 259.616 21.7545C259.495 21.5923 259.385 21.3547 259.292 21.0552C259.199 20.7558 259.125 20.4003 259.075 20.0092C259.025 19.618 259 19.1989 259 18.7759V-42.7758C259 -43.1989 259.025 -43.618 259.075 -44.0092C259.125 -44.4003 259.199 -44.7558 259.292 -45.0552C259.385 -45.3547 259.495 -45.5923 259.616 -45.7544C259.737 -45.9165 259.868 -46 259.999 -46C260.264 -46 260.519 -45.6603 260.707 -45.0557C260.895 -44.451 261 -43.6309 261 -42.7758V18.7759C261 19.631 260.895 20.451 260.707 21.0557C260.519 21.6603 260.264 22 259.999 22Z" fill="#0D59EE"/>
<path d="M267.001 8C266.736 8 266.481 7.6637 266.293 7.0651C266.105 6.46651 266 5.65465 266 4.80811V-28.8154C266.001 -29.6606 266.106 -30.4706 266.294 -31.0677C266.482 -31.6647 266.736 -32 267.001 -32C267.266 -31.9981 267.52 -31.662 267.707 -31.0651C267.894 -30.4683 267.999 -29.6594 268 -28.8154V4.80811C268 5.65339 267.895 6.46415 267.708 7.06253C267.52 7.66092 267.266 7.99808 267.001 8Z" fill="#0D59EE"/>
<path d="M274.001 9C273.736 9 273.481 8.66124 273.293 8.0582C273.105 7.45516 273 6.63726 273 5.78443V-29.7844C273 -30.6373 273.105 -31.4552 273.293 -32.0582C273.481 -32.6612 273.736 -33 274.001 -33C274.266 -32.9981 274.52 -32.6584 274.708 -32.0556C274.895 -31.4528 275 -30.636 275 -29.7844V5.78443C275 6.636 274.895 7.45278 274.708 8.05561C274.52 8.65844 274.266 8.99806 274.001 9Z" fill="#0D59EE"/>
<path d="M294 24C293.735 24 293.48 23.6655 293.293 23.0701C293.105 22.4748 293 21.6673 293 20.8253V-44.8326C293 -45.2491 293.026 -45.6616 293.076 -46.0463C293.126 -46.4311 293.2 -46.7806 293.293 -47.0748C293.386 -47.3691 293.496 -47.6022 293.617 -47.761C293.739 -47.9198 293.869 -48.0009 294 -48C294.131 -48.0009 294.261 -47.9198 294.383 -47.761C294.504 -47.6022 294.614 -47.3691 294.707 -47.0748C294.8 -46.7806 294.874 -46.4311 294.924 -46.0463C294.974 -45.6616 295 -45.2491 295 -44.8326V20.8253C295 21.6673 294.895 22.4748 294.707 23.0701C294.52 23.6655 294.265 24 294 24Z" fill="#0D59EE"/>
<path d="M301 26C300.735 26 300.48 25.6614 300.293 25.0586C300.105 24.4558 300 23.6383 300 22.7859V-46.7859C300 -47.6383 300.105 -48.4559 300.293 -49.0586C300.48 -49.6614 300.735 -50 301 -50C301.265 -50 301.52 -49.6614 301.707 -49.0586C301.895 -48.4559 302 -47.6383 302 -46.7859V22.7859C302 23.6383 301.895 24.4558 301.707 25.0586C301.52 25.6614 301.265 26 301 26Z" fill="#0D59EE"/>
<path d="M308 7C307.735 7 307.48 6.66284 307.293 6.06272C307.105 5.46261 307 4.64868 307 3.79998V-27.8C307 -28.6487 307.105 -29.4626 307.293 -30.0628C307.48 -30.6629 307.735 -31 308 -31C308.265 -31 308.52 -30.6629 308.707 -30.0628C308.895 -29.4626 309 -28.6487 309 -27.8V3.79998C309 4.64868 308.895 5.46261 308.707 6.06272C308.52 6.66284 308.265 7 308 7Z" fill="#0D59EE"/>
<path d="M315 8C314.735 8 314.48 7.65948 314.293 7.0533C314.105 6.44712 314 5.62497 314 4.7677V-28.775C314 -29.1991 314.026 -29.6191 314.076 -30.0109C314.126 -30.4026 314.2 -30.7584 314.293 -31.058C314.386 -31.3576 314.496 -31.595 314.617 -31.7566C314.739 -31.9183 314.869 -32.001 315 -32C315.131 -32.001 315.261 -31.9183 315.383 -31.7566C315.504 -31.595 315.614 -31.3576 315.707 -31.058C315.8 -30.7584 315.874 -30.4026 315.924 -30.0109C315.974 -29.6191 316 -29.1991 316 -28.775V4.7677C316 5.62497 315.895 6.44712 315.707 7.0533C315.52 7.65948 315.265 8 315 8Z" fill="#0D59EE"/>
<path d="M322.001 14C321.736 14 321.481 13.6677 321.293 13.0763C321.105 12.4849 321 11.6827 321 10.8463V-34.8463C321 -35.6827 321.105 -36.4849 321.293 -37.0763C321.481 -37.6678 321.736 -38 322.001 -38C322.266 -37.9981 322.52 -37.665 322.708 -37.0738C322.895 -36.4826 323 -35.6815 323 -34.8463V10.8463C323 11.6815 322.895 12.4825 322.708 13.0737C322.52 13.665 322.266 13.9981 322.001 14Z" fill="#0D59EE"/>
<path d="M329.001 15C328.736 15 328.481 14.6689 328.293 14.0796C328.105 13.4903 328 12.691 328 11.8576V-35.8575C328 -36.691 328.105 -37.4903 328.293 -38.0796C328.481 -38.6689 328.736 -39 329.001 -39C329.266 -38.9981 329.52 -38.6662 329.708 -38.0771C329.895 -37.488 330 -36.6897 330 -35.8575V11.8576C330 12.6898 329.895 13.488 329.708 14.0771C329.52 14.6662 329.266 14.9981 329.001 15Z" fill="#0D59EE"/>
<path d="M336 29C335.735 29 335.48 28.6628 335.293 28.0626C335.105 27.4623 335 26.6483 335 25.7994V-49.8067C335 -50.2267 335.026 -50.6425 335.076 -51.0304C335.126 -51.4183 335.2 -51.7707 335.293 -52.0673C335.386 -52.3639 335.496 -52.599 335.617 -52.759C335.739 -52.9191 335.869 -53.0009 336 -53C336.131 -53.0009 336.261 -52.9191 336.383 -52.759C336.504 -52.599 336.614 -52.3639 336.707 -52.0673C336.8 -51.7707 336.874 -51.4183 336.924 -51.0304C336.974 -50.6425 337 -50.2267 337 -49.8067V25.7994C337 26.2197 336.974 26.6359 336.924 27.0242C336.874 27.4126 336.8 27.7654 336.707 28.0626C336.614 28.3598 336.504 28.5955 336.383 28.7563C336.261 28.9172 336.131 29 336 29Z" fill="#0D59EE"/>
<path d="M343 31C342.735 31 342.48 30.6607 342.293 30.0567C342.105 29.4527 342 28.6335 342 27.7793V-51.7866C342.001 -52.6395 342.106 -53.4568 342.294 -54.0593C342.481 -54.6617 342.735 -55 343 -55C343.265 -55 343.519 -54.6617 343.706 -54.0593C343.894 -53.4568 343.999 -52.6395 344 -51.7866V27.7793C344 28.6335 343.895 29.4527 343.707 30.0567C343.52 30.6607 343.265 31 343 31Z" fill="#0D59EE"/>
<path d="M350 62C349.735 62 349.48 61.664 349.293 61.0659C349.105 60.4679 349 59.6567 349 58.811V-82.811C349 -83.6568 349.105 -84.4679 349.293 -85.066C349.48 -85.664 349.735 -86 350 -86C350.265 -86 350.52 -85.664 350.707 -85.066C350.895 -84.4679 351 -83.6568 351 -82.811V58.811C351 59.2298 350.974 59.6445 350.924 60.0314C350.874 60.4183 350.8 60.7698 350.707 61.0659C350.614 61.3621 350.504 61.597 350.383 61.7572C350.261 61.9175 350.131 62 350 62Z" fill="#0D59EE"/>
<path d="M356 65C355.735 65 355.48 64.6646 355.293 64.0674C355.105 63.4702 355 62.6603 355 61.8158V-85.8158C355 -86.6603 355.105 -87.4702 355.293 -88.0674C355.48 -88.6645 355.735 -89 356 -89C356.265 -89 356.52 -88.6645 356.707 -88.0674C356.895 -87.4702 357 -86.6603 357 -85.8158V61.8158C357 62.6603 356.895 63.4702 356.707 64.0674C356.52 64.6646 356.265 65 356 65Z" fill="#0D59EE"/>
<path d="M363 51C362.735 51 362.48 50.662 362.293 50.0603C362.105 49.4586 362 48.6425 362 47.7916V-71.7916C362 -72.6426 362.105 -73.4586 362.293 -74.0603C362.48 -74.662 362.735 -75 363 -75C363.265 -75 363.52 -74.662 363.707 -74.0603C363.895 -73.4586 364 -72.6426 364 -71.7916V47.7916C364 48.6425 363.895 49.4586 363.707 50.0603C363.52 50.662 363.265 51 363 51Z" fill="#0D59EE"/>
<path opacity="0.4" d="M370 53C369.735 53 369.48 52.6654 369.293 52.0698C369.105 51.4743 369 50.6665 369 49.8242V-73.8241C369 -74.6664 369.105 -75.4742 369.293 -76.0698C369.48 -76.6654 369.735 -77 370 -77C370.265 -77 370.52 -76.6654 370.707 -76.0698C370.895 -75.4742 371 -74.6664 371 -73.8241V49.8242C371 50.6665 370.895 51.4743 370.707 52.0698C370.52 52.6654 370.265 53 370 53Z" fill="#0D59EE" fill-opacity="0.4"/>
<path opacity="0.4" d="M376.999 43C376.734 42.9981 376.48 42.66 376.292 42.06C376.105 41.4599 376 40.6469 376 39.7993V-63.7993C376 -64.647 376.105 -65.4599 376.292 -66.06C376.48 -66.66 376.734 -66.9981 376.999 -67C377.264 -67 377.519 -66.6628 377.707 -66.0625C377.895 -65.4623 378 -64.6482 378 -63.7993V39.7993C378 40.2197 377.974 40.6359 377.924 41.0242C377.873 41.4125 377.8 41.7653 377.707 42.0625C377.614 42.3597 377.503 42.5955 377.382 42.7563C377.261 42.9172 377.13 43 376.999 43Z" fill="#0D59EE" fill-opacity="0.4"/>
<path opacity="0.4" d="M383.999 45C383.734 44.9981 383.48 44.6619 383.292 44.0653C383.105 43.4686 383 42.6601 383 41.8173V-65.8173C383 -66.6601 383.105 -67.4686 383.292 -68.0653C383.48 -68.6619 383.734 -68.9981 383.999 -69C384.264 -69 384.519 -68.6647 384.707 -68.0678C384.895 -67.4709 385 -66.6614 385 -65.8173V41.8173C385 42.6614 384.895 43.4709 384.707 44.0678C384.519 44.6647 384.264 45 383.999 45Z" fill="#0D59EE" fill-opacity="0.4"/>
<path opacity="0.4" d="M391 55C390.735 55 390.48 54.6648 390.293 54.0681C390.105 53.4714 390 52.6621 390 51.8183V-75.8183C390 -76.6621 390.105 -77.4714 390.293 -78.0681C390.48 -78.6648 390.735 -79 391 -79C391.265 -79 391.52 -78.6648 391.707 -78.0681C391.895 -77.4714 392 -76.6621 392 -75.8183V51.8183C392 52.2361 391.974 52.6499 391.924 53.0359C391.874 53.4219 391.8 53.7726 391.707 54.0681C391.614 54.3635 391.504 54.5979 391.383 54.7578C391.261 54.9177 391.131 55 391 55Z" fill="#0D59EE" fill-opacity="0.4"/>
<path opacity="0.4" d="M399 -78.8106C399 -80.5721 398.552 -82 398 -82C397.448 -82 397 -80.5721 397 -78.8106V54.8106C397 56.5721 397.448 58 398 58C398.552 58 399 56.5721 399 54.8106V-78.8106Z" fill="#0D59EE" fill-opacity="0.4"/>
<path opacity="0.4" d="M405 33C404.735 33 404.48 32.6618 404.293 32.0598C404.105 31.4577 404 30.6412 404 29.7899V-53.7899C404 -54.6413 404.105 -55.4578 404.293 -56.0598C404.48 -56.6618 404.735 -57 405 -57C405.265 -57 405.52 -56.6618 405.707 -56.0598C405.895 -55.4578 406 -54.6413 406 -53.7899V29.7899C406 30.6412 405.895 31.4577 405.707 32.0598C405.52 32.6618 405.265 33 405 33Z" fill="#0D59EE" fill-opacity="0.4"/>
<path opacity="0.4" d="M412 35C411.735 35 411.48 34.6611 411.293 34.0578C411.105 33.4545 411 32.6363 411 31.7831V-55.7831C411 -56.6362 411.105 -57.4545 411.293 -58.0578C411.48 -58.6611 411.735 -59 412 -59C412.265 -59 412.52 -58.6611 412.707 -58.0578C412.895 -57.4545 413 -56.6362 413 -55.7831V31.7831C413 32.6363 412.895 33.4545 412.707 34.0578C412.52 34.6611 412.265 35 412 35Z" fill="#0D59EE" fill-opacity="0.4"/>
<path opacity="0.4" d="M418.5 14C418.102 14 417.721 13.6677 417.439 13.0763C417.158 12.4849 417 11.6827 417 10.8463V-34.8463C417 -35.6827 417.158 -36.4849 417.439 -37.0763C417.721 -37.6678 418.102 -38 418.5 -38C418.898 -38 419.279 -37.6678 419.561 -37.0763C419.842 -36.4849 420 -35.6827 420 -34.8463V10.8463C420 11.2604 419.961 11.6706 419.886 12.0532C419.81 12.4358 419.7 12.7834 419.561 13.0763C419.421 13.3691 419.256 13.6014 419.074 13.7599C418.892 13.9184 418.697 14 418.5 14Z" fill="#0D59EE" fill-opacity="0.4"/>
<path opacity="0.4" d="M425 15C424.735 15 424.48 14.6689 424.293 14.0796C424.105 13.4903 424 12.691 424 11.8576V-35.8575C424 -36.691 424.105 -37.4903 424.293 -38.0796C424.48 -38.6689 424.735 -39 425 -39C425.265 -39 425.52 -38.6689 425.707 -38.0796C425.895 -37.4903 426 -36.691 426 -35.8575V11.8576C426 12.691 425.895 13.4903 425.707 14.0796C425.52 14.6689 425.265 15 425 15Z" fill="#0D59EE" fill-opacity="0.4"/>
<path opacity="0.4" d="M446.001 7C445.736 7 445.481 6.66767 445.293 6.07616C445.105 5.48465 445 4.68239 445 3.84586V-27.853C445.001 -28.6883 445.106 -29.4887 445.294 -30.0787C445.482 -30.6687 445.736 -31 446.001 -31C446.266 -31 446.52 -30.6684 446.707 -30.0783C446.895 -29.4881 447 -28.6877 447 -27.853V3.84586C447 4.25973 446.975 4.66971 446.925 5.05235C446.875 5.43498 446.801 5.78274 446.708 6.07572C446.615 6.3687 446.505 6.60116 446.384 6.75975C446.263 6.91835 446.133 7 446.001 7Z" fill="#0D59EE" fill-opacity="0.4"/>
<path opacity="0.4" d="M453.001 8C452.736 8 452.481 7.66436 452.293 7.06696C452.105 6.46956 452 5.65932 452 4.81446V-28.8145C452 -29.6593 452.105 -30.4696 452.293 -31.067C452.481 -31.6644 452.736 -32 453.001 -32C453.133 -32 453.263 -31.9175 453.384 -31.7574C453.505 -31.5972 453.615 -31.3625 453.708 -31.0666C453.801 -30.7707 453.875 -30.4194 453.925 -30.033C453.975 -29.6466 454 -29.2324 454 -28.8145V4.81446C454 5.23245 453.975 5.64656 453.925 6.033C453.875 6.41945 453.801 6.77067 453.708 7.06657C453.615 7.36246 453.505 7.59719 453.384 7.75736C453.263 7.91754 453.133 8 453.001 8Z" fill="#0D59EE" fill-opacity="0.4"/>
<path opacity="0.4" d="M459 16.8374C459 18.5841 459.448 20 460 20C460.552 20 461 18.5841 461 16.8374V-40.8374C461 -42.584 460.552 -44 460 -44C459.448 -44 459 -42.584 459 -40.8374V16.8374Z" fill="#0D59EE" fill-opacity="0.4"/>
<path opacity="0.4" d="M466 18.7759C466 20.5565 466.448 22 467 22C467.552 22 468 20.5565 468 18.7759V-42.7758C468 -44.5565 467.552 -46 467 -46C466.448 -46 466 -44.5565 466 -42.7758V18.7759Z" fill="#0D59EE" fill-opacity="0.4"/>
<path opacity="0.4" d="M474 43C474.265 43 474.52 42.6628 474.707 42.0625C474.895 41.4623 475 40.6482 475 39.7993V-63.7993C475 -64.6482 474.895 -65.4623 474.707 -66.0625C474.52 -66.6628 474.265 -67 474 -67C473.735 -67 473.48 -66.6628 473.293 -66.0625C473.105 -65.4623 473 -64.6482 473 -63.7993V39.7993C473 40.2197 473.026 40.6359 473.076 41.0242C473.126 41.4125 473.2 41.7653 473.293 42.0625C473.386 42.3597 473.496 42.5955 473.617 42.7563C473.739 42.9172 473.869 43 474 43Z" fill="#0D59EE" fill-opacity="0.4"/>
<path opacity="0.4" d="M481 45C481.265 45 481.52 44.6646 481.707 44.0678C481.895 43.4709 482 42.6614 482 41.8172V-65.8173C482 -66.6614 481.895 -67.4709 481.707 -68.0678C481.52 -68.6647 481.265 -69 481 -69C480.735 -69 480.48 -68.6647 480.293 -68.0678C480.105 -67.4709 480 -66.6614 480 -65.8173V41.8172C480 42.6614 480.105 43.4709 480.293 44.0678C480.48 44.6646 480.735 45 481 45Z" fill="#0D59EE" fill-opacity="0.4"/>
<path opacity="0.4" d="M486.999 29C487.264 29 487.519 28.6628 487.707 28.0626C487.895 27.4623 488 26.6483 488 25.7994V-49.8067C488 -50.2267 487.974 -50.6425 487.924 -51.0304C487.873 -51.4183 487.8 -51.7707 487.707 -52.0673C487.614 -52.3639 487.503 -52.599 487.382 -52.759C487.26 -52.9191 487.13 -53.0009 486.999 -53C486.868 -53.001 486.738 -52.919 486.616 -52.7589C486.495 -52.5987 486.385 -52.3636 486.292 -52.0669C486.199 -51.7701 486.126 -51.4177 486.075 -51.0299C486.025 -50.642 486 -50.2263 486 -49.8067V25.7994C486 26.2194 486.025 26.6354 486.075 27.0237C486.125 27.4119 486.199 27.7648 486.292 28.0621C486.385 28.3594 486.495 28.5953 486.616 28.7562C486.737 28.9172 486.868 29 486.999 29Z" fill="#0D59EE" fill-opacity="0.4"/>
<path opacity="0.4" d="M493.999 31C494.264 31 494.519 30.6607 494.707 30.0567C494.895 29.4527 495 28.6335 495 27.7793V-51.7793C495 -52.6335 494.895 -53.4527 494.707 -54.0567C494.519 -54.6607 494.264 -55 493.999 -55C493.868 -55 493.737 -54.9167 493.616 -54.7547C493.495 -54.5928 493.385 -54.3554 493.292 -54.0563C493.199 -53.7571 493.125 -53.402 493.075 -53.0113C493.025 -52.6206 493 -52.2019 493 -51.7793V27.7793C493 28.2019 493.025 28.6206 493.075 29.0113C493.125 29.402 493.199 29.7571 493.292 30.0563C493.385 30.3554 493.495 30.5927 493.616 30.7547C493.737 30.9166 493.868 31 493.999 31Z" fill="#0D59EE" fill-opacity="0.4"/>
<path opacity="0.4" d="M501.001 51C501.266 50.9981 501.52 50.6592 501.708 50.0577C501.895 49.4562 502 48.6413 502 47.7916V-71.7916C502 -72.6413 501.895 -73.4563 501.708 -74.0577C501.52 -74.6592 501.266 -74.9981 501.001 -75C500.736 -75 500.481 -74.662 500.293 -74.0603C500.105 -73.4586 500 -72.6426 500 -71.7916V47.7916C500 48.6425 500.105 49.4586 500.293 50.0603C500.481 50.662 500.736 51 501.001 51Z" fill="#0D59EE" fill-opacity="0.4"/>
<path opacity="0.4" d="M508.001 53C508.266 52.9981 508.52 52.6627 508.708 52.0673C508.895 51.4719 509 50.6652 509 49.8241V-73.8242C509 -74.6652 508.895 -75.4719 508.708 -76.0673C508.52 -76.6627 508.266 -76.9981 508.001 -77C507.736 -77 507.481 -76.6654 507.293 -76.0698C507.105 -75.4743 507 -74.6665 507 -73.8242V49.8241C507 50.6664 507.105 51.4742 507.293 52.0698C507.481 52.6654 507.736 53 508.001 53Z" fill="#0D59EE" fill-opacity="0.4"/>
<path opacity="0.4" d="M515 62C515.265 62 515.52 61.664 515.707 61.0659C515.895 60.4679 516 59.6567 516 58.811V-82.811C516 -83.6568 515.895 -84.4679 515.707 -85.066C515.52 -85.664 515.265 -86 515 -86C514.735 -86 514.48 -85.664 514.293 -85.066C514.105 -84.4679 514 -83.6568 514 -82.811V58.811C514 59.2298 514.026 59.6445 514.076 60.0314C514.126 60.4183 514.2 60.7698 514.293 61.0659C514.386 61.3621 514.496 61.597 514.617 61.7572C514.739 61.9175 514.869 62 515 62Z" fill="#0D59EE" fill-opacity="0.4"/>
<path opacity="0.4" d="M522 65C522.265 65 522.52 64.6645 522.707 64.0674C522.895 63.4702 523 62.6603 523 61.8158V-85.8158C523 -86.6603 522.895 -87.4702 522.707 -88.0674C522.52 -88.6645 522.265 -89 522 -89C521.735 -89 521.48 -88.6645 521.293 -88.0674C521.105 -87.4702 521 -86.6603 521 -85.8158V61.8158C521 62.6603 521.105 63.4702 521.293 64.0674C521.48 64.6645 521.735 65 522 65Z" fill="#0D59EE" fill-opacity="0.4"/>
<path opacity="0.4" d="M528 29.7899C528 31.5628 528.448 33 529 33C529.552 33 530 31.5628 530 29.7899V-53.7899C530 -55.5628 529.552 -57 529 -57C528.448 -57 528 -55.5628 528 -53.7899V29.7899Z" fill="#0D59EE" fill-opacity="0.4"/>
<path opacity="0.4" d="M535 31.7831C535 33.5597 535.448 35 536 35C536.552 35 537 33.5597 537 31.7831V-55.7831C537 -57.5597 536.552 -59 536 -59C535.448 -59 535 -57.5597 535 -55.7831V31.7831Z" fill="#0D59EE" fill-opacity="0.4"/>
<path opacity="0.4" d="M543 50C542.735 50 542.48 49.6652 542.293 49.0692C542.105 48.4733 542 47.665 542 46.8222V-70.8222C542 -71.665 542.105 -72.4733 542.293 -73.0692C542.48 -73.6652 542.735 -74 543 -74C543.265 -74 543.52 -73.6652 543.707 -73.0692C543.895 -72.4733 544 -71.665 544 -70.8222V46.8222C544 47.2395 543.974 47.6527 543.924 48.0383C543.874 48.4238 543.8 48.7741 543.707 49.0692C543.614 49.3643 543.504 49.5984 543.383 49.7581C543.261 49.9178 543.131 50 543 50Z" fill="#0D59EE" fill-opacity="0.4"/>
<path opacity="0.4" d="M550 53C549.735 53 549.48 52.6631 549.293 52.0635C549.105 51.4639 549 50.6506 549 49.8027V-73.8027C549 -74.6506 549.105 -75.4639 549.293 -76.0635C549.48 -76.6631 549.735 -77 550 -77C550.265 -77 550.52 -76.6631 550.707 -76.0635C550.895 -75.4639 551 -74.6506 551 -73.8027V49.8027C551 50.6506 550.895 51.4639 550.707 52.0635C550.52 52.6631 550.265 53 550 53Z" fill="#0D59EE" fill-opacity="0.4"/>
<path opacity="0.4" d="M556.001 43C555.736 43 555.481 42.6628 555.293 42.0625C555.105 41.4623 555 40.6482 555 39.7993V-63.7993C555 -64.6482 555.105 -65.4623 555.293 -66.0625C555.481 -66.6628 555.736 -67 556.001 -67C556.266 -66.9981 556.52 -66.66 556.708 -66.06C556.895 -65.4599 557 -64.647 557 -63.7993V39.7993C557 40.6469 556.895 41.4599 556.708 42.06C556.52 42.66 556.266 42.9981 556.001 43Z" fill="#0D59EE" fill-opacity="0.4"/>
<path opacity="0.4" d="M563.001 45C562.736 45 562.481 44.6646 562.293 44.0678C562.105 43.4709 562 42.6614 562 41.8172V-65.8173C562 -66.6614 562.105 -67.4709 562.293 -68.0678C562.481 -68.6647 562.736 -69 563.001 -69C563.266 -68.9981 563.52 -68.6619 563.708 -68.0653C563.895 -67.4686 564 -66.6601 564 -65.8173V41.8172C564 42.6601 563.895 43.4686 563.708 44.0653C563.52 44.6619 563.266 44.9981 563.001 45Z" fill="#0D59EE" fill-opacity="0.4"/>
<path opacity="0.4" d="M570 23C569.735 23 569.48 22.6622 569.293 22.0611C569.105 21.4599 569 20.6445 569 19.7943V-43.7943C569 -44.6445 569.105 -45.4599 569.293 -46.0611C569.48 -46.6622 569.735 -47 570 -47C570.265 -47 570.52 -46.6622 570.707 -46.0611C570.895 -45.4599 571 -44.6445 571 -43.7943V19.7943C571 20.2153 570.974 20.6322 570.924 21.0211C570.874 21.41 570.8 21.7634 570.707 22.0611C570.614 22.3587 570.504 22.5949 570.383 22.756C570.261 22.9171 570.131 23 570 23Z" fill="#0D59EE" fill-opacity="0.4"/>
<path opacity="0.4" d="M577 24C576.735 24 576.48 23.6666 576.293 23.0733C576.105 22.48 576 21.6752 576 20.8361V-44.8361C576 -45.6752 576.105 -46.48 576.293 -47.0733C576.48 -47.6666 576.735 -48 577 -48C577.265 -48 577.52 -47.6666 577.707 -47.0733C577.895 -46.48 578 -45.6752 578 -44.8361V20.8361C578 21.6752 577.895 22.48 577.707 23.0733C577.52 23.6666 577.265 24 577 24Z" fill="#0D59EE" fill-opacity="0.4"/>
<path opacity="0.4" d="M584 33C583.735 33 583.48 32.6618 583.293 32.0598C583.105 31.4577 583 30.6412 583 29.7899V-53.7899C583 -54.6413 583.105 -55.4578 583.293 -56.0598C583.48 -56.6618 583.735 -57 584 -57C584.265 -57 584.52 -56.6618 584.707 -56.0598C584.895 -55.4578 585 -54.6413 585 -53.7899V29.7899C585 30.2114 584.974 30.6289 584.924 31.0183C584.874 31.4078 584.8 31.7617 584.707 32.0598C584.614 32.3578 584.504 32.5943 584.383 32.7556C584.261 32.9169 584.131 33 584 33Z" fill="#0D59EE" fill-opacity="0.4"/>
<path opacity="0.4" d="M591 35C590.735 35 590.48 34.6611 590.293 34.0578C590.105 33.4545 590 32.6362 590 31.7831V-55.7831C590 -56.6362 590.105 -57.4545 590.293 -58.0578C590.48 -58.6611 590.735 -59 591 -59C591.265 -59 591.52 -58.6611 591.707 -58.0578C591.895 -57.4545 592 -56.6362 592 -55.7831V31.7831C592 32.6362 591.895 33.4545 591.707 34.0578C591.52 34.6611 591.265 35 591 35Z" fill="#0D59EE" fill-opacity="0.4"/>
<path opacity="0.4" d="M599 -71.7919C599 -73.5637 598.552 -75 598 -75C597.448 -75 597 -73.5637 597 -71.7919V47.7918C597 49.5636 597.448 51 598 51C598.552 51 599 49.5636 599 47.7918V-71.7919Z" fill="#0D59EE" fill-opacity="0.4"/>
<path opacity="0.4" d="M606 -73.8242C606 -75.5782 605.552 -77 605 -77C604.448 -77 604 -75.5782 604 -73.8242V49.8241C604 51.5781 604.448 53 605 53C605.552 53 606 51.5781 606 49.8241V-73.8242Z" fill="#0D59EE" fill-opacity="0.4"/>
<path opacity="0.4" d="M611.999 14C611.734 13.9981 611.48 13.665 611.292 13.0737C611.105 12.4825 611 11.6815 611 10.8463V-34.8463C611 -35.6815 611.105 -36.4826 611.292 -37.0738C611.48 -37.665 611.734 -37.9981 611.999 -38C612.264 -38 612.519 -37.6678 612.707 -37.0763C612.895 -36.4849 613 -35.6827 613 -34.8463V10.8463C613 11.2604 612.974 11.6706 612.924 12.0532C612.873 12.4358 612.8 12.7834 612.707 13.0763C612.614 13.3691 612.503 13.6014 612.382 13.7599C612.261 13.9184 612.13 14 611.999 14Z" fill="#0D59EE" fill-opacity="0.4"/>
<path opacity="0.4" d="M617.999 15C617.734 14.9981 617.48 14.6662 617.292 14.0771C617.105 13.488 617 12.6897 617 11.8575V-35.8576C617 -36.6898 617.105 -37.488 617.292 -38.0771C617.48 -38.6662 617.734 -38.9981 617.999 -39C618.264 -39 618.519 -38.6689 618.707 -38.0796C618.895 -37.4903 619 -36.691 619 -35.8576V11.8575C619 12.691 618.895 13.4903 618.707 14.0796C618.519 14.6689 618.264 15 617.999 15Z" fill="#0D59EE" fill-opacity="0.4"/>
<path opacity="0.4" d="M625 23C624.735 23 624.48 22.6622 624.293 22.0611C624.105 21.4599 624 20.6445 624 19.7943V-43.7943C624 -44.6445 624.105 -45.4599 624.293 -46.0611C624.48 -46.6622 624.735 -47 625 -47C625.265 -47 625.52 -46.6622 625.707 -46.0611C625.895 -45.4599 626 -44.6445 626 -43.7943V19.7943C626 20.2153 625.974 20.6322 625.924 21.0211C625.874 21.41 625.8 21.7634 625.707 22.0611C625.614 22.3587 625.504 22.5949 625.383 22.756C625.261 22.9171 625.131 23 625 23Z" fill="#0D59EE" fill-opacity="0.4"/>
<path opacity="0.4" d="M632 24C631.735 24 631.48 23.6666 631.293 23.0733C631.105 22.48 631 21.6752 631 20.8361V-44.8361C631 -45.6752 631.105 -46.48 631.293 -47.0733C631.48 -47.6666 631.735 -48 632 -48C632.265 -48 632.52 -47.6666 632.707 -47.0733C632.895 -46.48 633 -45.6752 633 -44.8361V20.8361C633 21.6752 632.895 22.48 632.707 23.0733C632.52 23.6666 632.265 24 632 24Z" fill="#0D59EE" fill-opacity="0.4"/>
<path opacity="0.4" d="M639 29C638.735 29 638.48 28.6628 638.293 28.0626C638.105 27.4623 638 26.6483 638 25.7994V-49.8067C638 -50.2267 638.026 -50.6425 638.076 -51.0304C638.126 -51.4183 638.2 -51.7707 638.293 -52.0673C638.386 -52.3639 638.496 -52.599 638.617 -52.759C638.739 -52.9191 638.869 -53.0009 639 -53C639.131 -53.0009 639.261 -52.9191 639.383 -52.759C639.504 -52.599 639.614 -52.3639 639.707 -52.0673C639.8 -51.7707 639.874 -51.4183 639.924 -51.0304C639.974 -50.6425 640 -50.2267 640 -49.8067V25.7994C640 26.2197 639.974 26.6359 639.924 27.0242C639.874 27.4126 639.8 27.7654 639.707 28.0626C639.614 28.3598 639.504 28.5955 639.383 28.7563C639.261 28.9172 639.131 29 639 29Z" fill="#0D59EE" fill-opacity="0.4"/>
<path opacity="0.4" d="M646 31C645.735 31 645.48 30.6607 645.293 30.0567C645.105 29.4528 645 28.6337 645 27.7796V-51.7723C645 -52.1958 645.025 -52.6153 645.075 -53.0069C645.126 -53.3985 645.199 -53.7544 645.292 -54.0542C645.385 -54.354 645.495 -54.5919 645.617 -54.7542C645.738 -54.9165 645.868 -55 646 -55C646.265 -55 646.52 -54.6607 646.707 -54.0567C646.895 -53.4528 647 -52.6337 647 -51.7796V27.7796C647 28.6337 646.895 29.4528 646.707 30.0567C646.52 30.6607 646.265 31 646 31Z" fill="#0D59EE" fill-opacity="0.4"/>
<path opacity="0.4" d="M653 7C652.735 7 652.48 6.66284 652.293 6.06272C652.105 5.46261 652 4.64868 652 3.79998V-27.8C652 -28.6487 652.105 -29.4626 652.293 -30.0628C652.48 -30.6629 652.735 -31 653 -31C653.265 -31 653.52 -30.6629 653.707 -30.0628C653.895 -29.4626 654 -28.6487 654 -27.8V3.79998C654 4.64868 653.895 5.46261 653.707 6.06272C653.52 6.66284 653.265 7 653 7Z" fill="#0D59EE" fill-opacity="0.4"/>
<path opacity="0.4" d="M660 8C659.735 8 659.48 7.65943 659.293 7.05325C659.105 6.44707 659 5.62492 659 4.76766V-28.775C659.001 -29.631 659.106 -30.4513 659.294 -31.0559C659.481 -31.6604 659.735 -32 660 -32C660.265 -32 660.519 -31.6604 660.706 -31.0559C660.894 -30.4513 660.999 -29.631 661 -28.775V4.76766C661 5.62492 660.895 6.44707 660.707 7.05325C660.52 7.65943 660.265 8 660 8Z" fill="#0D59EE" fill-opacity="0.4"/>
<path opacity="0.4" d="M668 -34.8463C668 -36.5881 667.552 -38 667 -38C666.448 -38 666 -36.5881 666 -34.8463V10.8463C666 12.588 666.448 14 667 14C667.552 14 668 12.588 668 10.8463V-34.8463Z" fill="#0D59EE" fill-opacity="0.4"/>
<path opacity="0.4" d="M675 -35.8576C675 -37.5931 674.552 -39 674 -39C673.448 -39 673 -37.5931 673 -35.8576V11.8575C673 13.5931 673.448 15 674 15C674.552 15 675 13.5931 675 11.8575V-35.8576Z" fill="#0D59EE" fill-opacity="0.4"/>
<path opacity="0.4" d="M681.001 33C680.736 33 680.481 32.6661 680.293 32.0719C680.105 31.4776 680 30.6716 680 29.8312V-53.8312C680 -54.6716 680.105 -55.4776 680.293 -56.0719C680.481 -56.6661 680.736 -57 681.001 -57C681.132 -57 681.263 -56.918 681.384 -56.7586C681.505 -56.5993 681.615 -56.3658 681.708 -56.0714C681.801 -55.7771 681.875 -55.4277 681.925 -55.0433C681.975 -54.6589 682 -54.247 682 -53.8312V29.8312C682 30.247 681.975 30.6589 681.925 31.0433C681.875 31.4277 681.801 31.7771 681.708 32.0714C681.615 32.3658 681.505 32.5993 681.384 32.7586C681.263 32.918 681.132 33 681.001 33Z" fill="#0D59EE" fill-opacity="0.4"/>
<path opacity="0.4" d="M687.001 35C686.736 35 686.481 34.6654 686.293 34.0699C686.105 33.4744 686 32.6667 686 31.8245V-55.8246C686 -56.6667 686.105 -57.4744 686.293 -58.0699C686.481 -58.6654 686.736 -59 687.001 -59C687.132 -59 687.263 -58.9178 687.384 -58.7581C687.505 -58.5985 687.615 -58.3645 687.708 -58.0695C687.801 -57.7746 687.875 -57.4244 687.925 -57.0392C687.975 -56.654 688 -56.2412 688 -55.8246V31.8245C688 32.2412 687.975 32.654 687.925 33.0392C687.875 33.4244 687.801 33.7746 687.708 34.0695C687.615 34.3645 687.505 34.5985 687.384 34.7581C687.263 34.9178 687.132 35 687.001 35Z" fill="#0D59EE" fill-opacity="0.4"/>
<path opacity="0.4" d="M694 43C693.735 43 693.48 42.6628 693.293 42.0625C693.105 41.4623 693 40.6482 693 39.7993V-63.7993C693 -64.6482 693.105 -65.4623 693.293 -66.0625C693.48 -66.6628 693.735 -67 694 -67C694.265 -67 694.52 -66.6628 694.707 -66.0625C694.895 -65.4623 695 -64.6482 695 -63.7993V39.7993C695 40.2197 694.974 40.6359 694.924 41.0242C694.874 41.4125 694.8 41.7653 694.707 42.0625C694.614 42.3597 694.504 42.5955 694.383 42.7563C694.261 42.9172 694.131 43 694 43Z" fill="#0D59EE" fill-opacity="0.4"/>
<path opacity="0.4" d="M701 45C700.735 45 700.48 44.6646 700.293 44.0678C700.105 43.4709 700 42.6614 700 41.8172V-65.8173C700 -66.6614 700.105 -67.4709 700.293 -68.0678C700.48 -68.6647 700.735 -69 701 -69C701.265 -69 701.52 -68.6647 701.707 -68.0678C701.895 -67.4709 702 -66.6614 702 -65.8173V41.8172C702 42.6614 701.895 43.4709 701.707 44.0678C701.52 44.6646 701.265 45 701 45Z" fill="#0D59EE" fill-opacity="0.4"/>
<path opacity="0.4" d="M708 23C707.735 23 707.48 22.6622 707.293 22.0611C707.105 21.4599 707 20.6445 707 19.7943V-43.7943C707 -44.6445 707.105 -45.4599 707.293 -46.0611C707.48 -46.6622 707.735 -47 708 -47C708.265 -47 708.52 -46.6622 708.707 -46.0611C708.895 -45.4599 709 -44.6445 709 -43.7943V19.7943C709 20.2153 708.974 20.6322 708.924 21.0211C708.874 21.41 708.8 21.7634 708.707 22.0611C708.614 22.3587 708.504 22.5949 708.383 22.756C708.261 22.9171 708.131 23 708 23Z" fill="#0D59EE" fill-opacity="0.4"/>
<path opacity="0.4" d="M715 24C714.735 24 714.48 23.6666 714.293 23.0733C714.105 22.48 714 21.6752 714 20.8361V-44.8361C714 -45.6752 714.105 -46.48 714.293 -47.0733C714.48 -47.6666 714.735 -48 715 -48C715.265 -48 715.52 -47.6666 715.707 -47.0733C715.895 -46.48 716 -45.6752 716 -44.8361V20.8361C716 21.6752 715.895 22.48 715.707 23.0733C715.52 23.6666 715.265 24 715 24Z" fill="#0D59EE" fill-opacity="0.4"/>
<path opacity="0.4" d="M721.999 14C721.867 14 721.737 13.9184 721.616 13.7598C721.495 13.6012 721.385 13.3688 721.292 13.0758C721.199 12.7829 721.125 12.4352 721.075 12.0526C721.025 11.67 721 11.2601 721 10.8463V-34.8463C721 -35.2601 721.025 -35.6701 721.075 -36.0527C721.125 -36.4352 721.199 -36.783 721.292 -37.0759C721.385 -37.3688 721.495 -37.6013 721.616 -37.7598C721.737 -37.9184 721.867 -38 721.999 -38C722.264 -38 722.519 -37.6678 722.707 -37.0763C722.895 -36.4849 723 -35.6827 723 -34.8463V10.8463C723 11.2604 722.974 11.6706 722.924 12.0532C722.873 12.4358 722.8 12.7834 722.707 13.0763C722.614 13.3691 722.503 13.6014 722.382 13.7599C722.261 13.9184 722.13 14 721.999 14Z" fill="#0D59EE" fill-opacity="0.4"/>
<path opacity="0.4" d="M728.999 15C728.867 15 728.737 14.9187 728.616 14.7606C728.495 14.6026 728.385 14.3711 728.292 14.0792C728.199 13.7873 728.125 13.4408 728.075 13.0596C728.025 12.6784 728 12.2699 728 11.8575V-35.8576C728 -36.2699 728.025 -36.6784 728.075 -37.0596C728.125 -37.4408 728.199 -37.7873 728.292 -38.0792C728.385 -38.3711 728.495 -38.6027 728.616 -38.7607C728.737 -38.9187 728.867 -39 728.999 -39C729.264 -39 729.519 -38.6689 729.707 -38.0796C729.895 -37.4903 730 -36.691 730 -35.8576V11.8575C730 12.691 729.895 13.4903 729.707 14.0796C729.519 14.6689 729.264 15 728.999 15Z" fill="#0D59EE" fill-opacity="0.4"/>
<path opacity="0.4" d="M736.001 8C735.736 8 735.481 7.6637 735.293 7.0651C735.105 6.46651 735 5.65465 735 4.80811V-28.8154C735.001 -29.6606 735.106 -30.4706 735.294 -31.0677C735.482 -31.6647 735.736 -32 736.001 -32C736.266 -32 736.52 -31.6645 736.707 -31.0672C736.895 -30.47 737 -29.66 737 -28.8154V4.80811C737 5.22693 736.975 5.64182 736.925 6.02903C736.875 6.41625 736.801 6.76817 736.708 7.06466C736.615 7.36115 736.505 7.59638 736.384 7.75688C736.263 7.91737 736.133 8 736.001 8Z" fill="#0D59EE" fill-opacity="0.4"/>
<path opacity="0.4" d="M743.001 9C742.736 9 742.481 8.66119 742.293 8.05816C742.105 7.45511 742 6.63721 742 5.78439V-29.7844C742 -30.6373 742.105 -31.4552 742.293 -32.0582C742.481 -32.6612 742.736 -33 743.001 -33C743.133 -33 743.263 -32.9168 743.384 -32.7551C743.505 -32.5934 743.615 -32.3564 743.708 -32.0578C743.801 -31.7591 743.875 -31.4045 743.925 -31.0144C743.975 -30.6243 744 -30.2064 744 -29.7844V5.78439C744 6.20632 743.975 6.62434 743.925 7.01443C743.875 7.40452 743.801 7.75906 743.708 8.05775C743.615 8.35644 743.505 8.59338 743.384 8.75507C743.263 8.91676 743.133 9 743.001 9Z" fill="#0D59EE" fill-opacity="0.4"/>
<path opacity="0.4" d="M763 24C762.869 24 762.739 23.9179 762.617 23.7583C762.496 23.5988 762.386 23.3649 762.293 23.0701C762.2 22.7753 762.126 22.4254 762.076 22.0402C762.026 21.6551 762 21.2422 762 20.8253V-44.8326C762 -45.2491 762.026 -45.6616 762.076 -46.0463C762.126 -46.4311 762.2 -46.7806 762.293 -47.0748C762.386 -47.3691 762.496 -47.6022 762.617 -47.761C762.739 -47.9198 762.869 -48.0009 763 -48C763.131 -48.0009 763.261 -47.9198 763.383 -47.761C763.504 -47.6022 763.614 -47.3691 763.707 -47.0748C763.8 -46.7806 763.874 -46.4311 763.924 -46.0463C763.974 -45.6616 764 -45.2491 764 -44.8326V20.8253C764 21.6673 763.895 22.4748 763.707 23.0701C763.52 23.6655 763.265 24 763 24Z" fill="#0D59EE" fill-opacity="0.4"/>
<path opacity="0.4" d="M770 26C769.869 26 769.739 25.9169 769.617 25.7554C769.496 25.5938 769.386 25.357 769.293 25.0586C769.2 24.7601 769.126 24.4058 769.076 24.0159C769.026 23.6259 769 23.2079 769 22.7858V-46.7859C769 -47.208 769.026 -47.6259 769.076 -48.0159C769.126 -48.4058 769.2 -48.7602 769.293 -49.0586C769.386 -49.3571 769.496 -49.5938 769.617 -49.7554C769.739 -49.9169 769.869 -50 770 -50C770.265 -50 770.52 -49.6614 770.707 -49.0586C770.895 -48.4559 771 -47.6383 771 -46.7859V22.7858C771 23.6383 770.895 24.4558 770.707 25.0586C770.52 25.6613 770.265 26 770 26Z" fill="#0D59EE" fill-opacity="0.4"/>
<path opacity="0.4" d="M777 7C776.735 7 776.48 6.66284 776.293 6.06272C776.105 5.46261 776 4.64868 776 3.79998V-27.8C776 -28.6487 776.105 -29.4626 776.293 -30.0628C776.48 -30.6629 776.735 -31 777 -31C777.265 -31 777.52 -30.6629 777.707 -30.0628C777.895 -29.4626 778 -28.6487 778 -27.8V3.79998C778 4.64868 777.895 5.46261 777.707 6.06272C777.52 6.66284 777.265 7 777 7Z" fill="#0D59EE" fill-opacity="0.4"/>
<path opacity="0.4" d="M784 8C783.735 8 783.48 7.65943 783.293 7.05325C783.105 6.44707 783 5.62492 783 4.76766V-28.775C783.001 -29.631 783.106 -30.4513 783.294 -31.0559C783.481 -31.6604 783.735 -32 784 -32C784.265 -32 784.519 -31.6604 784.706 -31.0559C784.894 -30.4513 784.999 -29.631 785 -28.775V4.76766C785 5.62492 784.895 6.44707 784.707 7.05325C784.52 7.65943 784.265 8 784 8Z" fill="#0D59EE" fill-opacity="0.4"/>
<path opacity="0.4" d="M791.001 14C790.736 14 790.481 13.6677 790.293 13.0763C790.105 12.4849 790 11.6827 790 10.8463V-34.8463C790 -35.6827 790.105 -36.4849 790.293 -37.0763C790.481 -37.6678 790.736 -38 791.001 -38C791.266 -37.9981 791.52 -37.665 791.708 -37.0738C791.895 -36.4826 792 -35.6815 792 -34.8463V10.8463C792 11.6815 791.895 12.4825 791.708 13.0737C791.52 13.665 791.266 13.9981 791.001 14Z" fill="#0D59EE" fill-opacity="0.4"/>
<path opacity="0.4" d="M797 16.8374C797 18.5841 797.448 20 798 20C798.552 20 799 18.5841 799 16.8374V-40.8374C799 -42.584 798.552 -44 798 -44C797.448 -44 797 -42.584 797 -40.8374V16.8374Z" fill="#0D59EE" fill-opacity="0.4"/>
<path opacity="0.4" d="M804 18.7759C804 20.5565 804.448 22 805 22C805.552 22 806 20.5565 806 18.7759V-42.7758C806 -44.5565 805.552 -46 805 -46C804.448 -46 804 -44.5565 804 -42.7758V18.7759Z" fill="#0D59EE" fill-opacity="0.4"/>
<path opacity="0.4" d="M812 43C812.265 43 812.52 42.6628 812.707 42.0625C812.895 41.4623 813 40.6482 813 39.7993V-63.7993C813 -64.6482 812.895 -65.4623 812.707 -66.0625C812.52 -66.6628 812.265 -67 812 -67C811.735 -67 811.48 -66.6628 811.293 -66.0625C811.105 -65.4623 811 -64.6482 811 -63.7993V39.7993C811 40.2197 811.026 40.6359 811.076 41.0242C811.126 41.4125 811.2 41.7653 811.293 42.0625C811.386 42.3597 811.496 42.5955 811.617 42.7563C811.739 42.9172 811.869 43 812 43Z" fill="#0D59EE" fill-opacity="0.4"/>
<path opacity="0.4" d="M818 45C818.265 45 818.52 44.6646 818.707 44.0678C818.895 43.4709 819 42.6614 819 41.8172V-65.8173C819 -66.6614 818.895 -67.4709 818.707 -68.0678C818.52 -68.6647 818.265 -69 818 -69C817.735 -69 817.48 -68.6647 817.293 -68.0678C817.105 -67.4709 817 -66.6614 817 -65.8173V41.8172C817 42.6614 817.105 43.4709 817.293 44.0678C817.48 44.6646 817.735 45 818 45Z" fill="#0D59EE" fill-opacity="0.4"/>
<path opacity="0.4" d="M824.999 29C825.264 29 825.519 28.6628 825.707 28.0626C825.895 27.4623 826 26.6483 826 25.7994V-49.8067C826 -50.2267 825.974 -50.6425 825.924 -51.0304C825.873 -51.4183 825.8 -51.7707 825.707 -52.0673C825.614 -52.3639 825.503 -52.599 825.382 -52.759C825.26 -52.9191 825.13 -53.0009 824.999 -53C824.868 -53.001 824.738 -52.919 824.616 -52.7589C824.495 -52.5987 824.385 -52.3636 824.292 -52.0669C824.199 -51.7701 824.126 -51.4177 824.075 -51.0299C824.025 -50.642 824 -50.2263 824 -49.8067V25.7994C824 26.2194 824.025 26.6354 824.075 27.0237C824.125 27.4119 824.199 27.7648 824.292 28.0621C824.385 28.3594 824.495 28.5953 824.616 28.7562C824.737 28.9172 824.868 29 824.999 29Z" fill="#0D59EE" fill-opacity="0.4"/>
<path opacity="0.4" d="M831.999 31C832.264 31 832.519 30.6607 832.707 30.0567C832.895 29.4527 833 28.6335 833 27.7793V-51.7793C833 -52.6335 832.895 -53.4527 832.707 -54.0567C832.519 -54.6607 832.264 -55 831.999 -55C831.868 -55 831.737 -54.9167 831.616 -54.7547C831.495 -54.5928 831.385 -54.3554 831.292 -54.0563C831.199 -53.7571 831.125 -53.402 831.075 -53.0113C831.025 -52.6206 831 -52.2019 831 -51.7793V27.7793C831 28.2019 831.025 28.6206 831.075 29.0113C831.125 29.402 831.199 29.7571 831.292 30.0563C831.385 30.3554 831.495 30.5927 831.616 30.7547C831.737 30.9166 831.868 31 831.999 31Z" fill="#0D59EE" fill-opacity="0.4"/>
<path opacity="0.4" d="M839.001 51C839.266 50.9981 839.52 50.6592 839.708 50.0577C839.895 49.4562 840 48.6413 840 47.7916V-71.7916C840 -72.6413 839.895 -73.4563 839.708 -74.0577C839.52 -74.6592 839.266 -74.9981 839.001 -75C838.736 -75 838.481 -74.662 838.293 -74.0603C838.105 -73.4586 838 -72.6426 838 -71.7916V47.7916C838 48.6425 838.105 49.4586 838.293 50.0603C838.481 50.662 838.736 51 839.001 51Z" fill="#0D59EE" fill-opacity="0.4"/>
<path opacity="0.4" d="M846.001 53C846.266 52.9981 846.52 52.6627 846.708 52.0673C846.895 51.4719 847 50.6652 847 49.8241V-73.8242C847 -74.6652 846.895 -75.4719 846.708 -76.0673C846.52 -76.6627 846.266 -76.9981 846.001 -77C845.736 -77 845.481 -76.6654 845.293 -76.0698C845.105 -75.4743 845 -74.6665 845 -73.8242V49.8241C845 50.6664 845.105 51.4742 845.293 52.0698C845.481 52.6654 845.736 53 846.001 53Z" fill="#0D59EE" fill-opacity="0.4"/>
<path opacity="0.4" d="M853 62C853.265 62 853.52 61.664 853.707 61.0659C853.895 60.4679 854 59.6567 854 58.811V-82.811C854 -83.6568 853.895 -84.4679 853.707 -85.066C853.52 -85.664 853.265 -86 853 -86C852.735 -86 852.48 -85.664 852.293 -85.066C852.105 -84.4679 852 -83.6568 852 -82.811V58.811C852 59.2298 852.026 59.6445 852.076 60.0314C852.126 60.4183 852.2 60.7698 852.293 61.0659C852.386 61.3621 852.496 61.597 852.617 61.7572C852.739 61.9175 852.869 62 853 62Z" fill="#0D59EE" fill-opacity="0.4"/>
<path opacity="0.4" d="M860 65C860.265 65 860.52 64.6645 860.707 64.0674C860.895 63.4702 861 62.6603 861 61.8158V-85.8158C861 -86.6603 860.895 -87.4702 860.707 -88.0674C860.52 -88.6645 860.265 -89 860 -89C859.735 -89 859.48 -88.6645 859.293 -88.0674C859.105 -87.4702 859 -86.6603 859 -85.8158V61.8158C859 62.6603 859.105 63.4702 859.293 64.0674C859.48 64.6645 859.735 65 860 65Z" fill="#0D59EE" fill-opacity="0.4"/>
<path opacity="0.4" d="M866 29.7899C866 31.5628 866.448 33 867 33C867.552 33 868 31.5628 868 29.7899V-53.7899C868 -55.5628 867.552 -57 867 -57C866.448 -57 866 -55.5628 866 -53.7899V29.7899Z" fill="#0D59EE" fill-opacity="0.4"/>
<path opacity="0.4" d="M873 31.7831C873 33.5597 873.448 35 874 35C874.552 35 875 33.5597 875 31.7831V-55.7831C875 -57.5597 874.552 -59 874 -59C873.448 -59 873 -57.5597 873 -55.7831V31.7831Z" fill="#0D59EE" fill-opacity="0.4"/>
<path opacity="0.4" d="M880 50C879.735 50 879.48 49.6652 879.293 49.0692C879.105 48.4733 879 47.665 879 46.8222V-70.8222C879 -71.665 879.105 -72.4733 879.293 -73.0692C879.48 -73.6652 879.735 -74 880 -74C880.265 -74 880.52 -73.6652 880.707 -73.0692C880.895 -72.4733 881 -71.665 881 -70.8222V46.8222C881 47.2395 880.974 47.6527 880.924 48.0383C880.874 48.4238 880.8 48.7741 880.707 49.0692C880.614 49.3643 880.504 49.5984 880.383 49.7581C880.261 49.9178 880.131 50 880 50Z" fill="#0D59EE" fill-opacity="0.4"/>
<path opacity="0.4" d="M887 53C886.735 53 886.48 52.6631 886.293 52.0635C886.105 51.4639 886 50.6506 886 49.8027V-73.8027C886 -74.6506 886.105 -75.4639 886.293 -76.0635C886.48 -76.6631 886.735 -77 887 -77C887.265 -77 887.52 -76.6631 887.707 -76.0635C887.895 -75.4639 888 -74.6506 888 -73.8027V49.8027C888 50.6506 887.895 51.4639 887.707 52.0635C887.52 52.6631 887.265 53 887 53Z" fill="#0D59EE" fill-opacity="0.4"/>
<path opacity="0.4" d="M894.001 43C893.736 43 893.481 42.6628 893.293 42.0625C893.105 41.4623 893 40.6482 893 39.7993V-63.7993C893 -64.6482 893.105 -65.4623 893.293 -66.0625C893.481 -66.6628 893.736 -67 894.001 -67C894.266 -66.9981 894.52 -66.66 894.708 -66.06C894.895 -65.4599 895 -64.647 895 -63.7993V39.7993C895 40.6469 894.895 41.4599 894.708 42.06C894.52 42.66 894.266 42.9981 894.001 43Z" fill="#0D59EE" fill-opacity="0.4"/>
<path opacity="0.4" d="M901.001 45C900.736 45 900.481 44.6646 900.293 44.0678C900.105 43.4709 900 42.6614 900 41.8172V-65.8173C900 -66.6614 900.105 -67.4709 900.293 -68.0678C900.481 -68.6647 900.736 -69 901.001 -69C901.266 -68.9981 901.52 -68.6619 901.708 -68.0653C901.895 -67.4686 902 -66.6601 902 -65.8173V41.8172C902 42.6601 901.895 43.4686 901.708 44.0653C901.52 44.6619 901.266 44.9981 901.001 45Z" fill="#0D59EE" fill-opacity="0.4"/>
<path opacity="0.4" d="M908 23C907.735 23 907.48 22.6622 907.293 22.0611C907.105 21.4599 907 20.6445 907 19.7943V-43.7943C907 -44.6445 907.105 -45.4599 907.293 -46.0611C907.48 -46.6622 907.735 -47 908 -47C908.265 -47 908.52 -46.6622 908.707 -46.0611C908.895 -45.4599 909 -44.6445 909 -43.7943V19.7943C909 20.2153 908.974 20.6322 908.924 21.0211C908.874 21.41 908.8 21.7634 908.707 22.0611C908.614 22.3587 908.504 22.5949 908.383 22.756C908.261 22.9171 908.131 23 908 23Z" fill="#0D59EE" fill-opacity="0.4"/>
<path opacity="0.4" d="M915 24C914.735 24 914.48 23.6666 914.293 23.0733C914.105 22.48 914 21.6752 914 20.8361V-44.8361C914 -45.6752 914.105 -46.48 914.293 -47.0733C914.48 -47.6666 914.735 -48 915 -48C915.265 -48 915.52 -47.6666 915.707 -47.0733C915.895 -46.48 916 -45.6752 916 -44.8361V20.8361C916 21.6752 915.895 22.48 915.707 23.0733C915.52 23.6666 915.265 24 915 24Z" fill="#0D59EE" fill-opacity="0.4"/>
<path opacity="0.4" d="M922 33C921.735 33 921.48 32.6618 921.293 32.0598C921.105 31.4577 921 30.6412 921 29.7899V-53.7899C921 -54.6413 921.105 -55.4578 921.293 -56.0598C921.48 -56.6618 921.735 -57 922 -57C922.265 -57 922.52 -56.6618 922.707 -56.0598C922.895 -55.4578 923 -54.6413 923 -53.7899V29.7899C923 30.2114 922.974 30.6289 922.924 31.0183C922.874 31.4078 922.8 31.7617 922.707 32.0598C922.614 32.3578 922.504 32.5943 922.383 32.7556C922.261 32.9169 922.131 33 922 33Z" fill="#0D59EE" fill-opacity="0.4"/>
<path opacity="0.4" d="M929 35C928.735 35 928.48 34.6611 928.293 34.0578C928.105 33.4545 928 32.6362 928 31.7831V-55.7831C928 -56.6362 928.105 -57.4545 928.293 -58.0578C928.48 -58.6611 928.735 -59 929 -59C929.265 -59 929.52 -58.6611 929.707 -58.0578C929.895 -57.4545 930 -56.6362 930 -55.7831V31.7831C930 32.6362 929.895 33.4545 929.707 34.0578C929.52 34.6611 929.265 35 929 35Z" fill="#0D59EE" fill-opacity="0.4"/>
<path opacity="0.4" d="M937 -71.7919C937 -73.5637 936.552 -75 936 -75C935.448 -75 935 -73.5637 935 -71.7919V47.7918C935 49.5636 935.448 51 936 51C936.552 51 937 49.5636 937 47.7918V-71.7919Z" fill="#0D59EE" fill-opacity="0.4"/>
<path opacity="0.4" d="M944 -73.8242C944 -75.5782 943.552 -77 943 -77C942.448 -77 942 -75.5782 942 -73.8242V49.8241C942 51.5781 942.448 53 943 53C943.552 53 944 51.5781 944 49.8241V-73.8242Z" fill="#0D59EE" fill-opacity="0.4"/>
<path opacity="0.4" d="M948.999 14C948.734 13.9981 948.48 13.665 948.292 13.0737C948.105 12.4825 948 11.6815 948 10.8463V-34.8463C948 -35.6815 948.105 -36.4826 948.292 -37.0738C948.48 -37.665 948.734 -37.9981 948.999 -38C949.264 -38 949.519 -37.6678 949.707 -37.0763C949.895 -36.4849 950 -35.6827 950 -34.8463V10.8463C950 11.2604 949.974 11.6706 949.924 12.0532C949.873 12.4358 949.8 12.7834 949.707 13.0763C949.614 13.3691 949.503 13.6014 949.382 13.7599C949.261 13.9184 949.13 14 948.999 14Z" fill="#0D59EE" fill-opacity="0.4"/>
<path opacity="0.4" d="M955.999 15C955.734 14.9981 955.48 14.6662 955.292 14.0771C955.105 13.488 955 12.6897 955 11.8575V-35.8576C955 -36.6898 955.105 -37.488 955.292 -38.0771C955.48 -38.6662 955.734 -38.9981 955.999 -39C956.264 -39 956.519 -38.6689 956.707 -38.0796C956.895 -37.4903 957 -36.691 957 -35.8576V11.8575C957 12.691 956.895 13.4903 956.707 14.0796C956.519 14.6689 956.264 15 955.999 15Z" fill="#0D59EE" fill-opacity="0.4"/>
<path opacity="0.4" d="M963 23C962.735 23 962.48 22.6622 962.293 22.0611C962.105 21.4599 962 20.6445 962 19.7943V-43.7943C962 -44.6445 962.105 -45.4599 962.293 -46.0611C962.48 -46.6622 962.735 -47 963 -47C963.265 -47 963.52 -46.6622 963.707 -46.0611C963.895 -45.4599 964 -44.6445 964 -43.7943V19.7943C964 20.2153 963.974 20.6322 963.924 21.0211C963.874 21.41 963.8 21.7634 963.707 22.0611C963.614 22.3587 963.504 22.5949 963.383 22.756C963.261 22.9171 963.131 23 963 23Z" fill="#0D59EE" fill-opacity="0.4"/>
<path opacity="0.4" d="M970 24C969.735 24 969.48 23.6666 969.293 23.0733C969.105 22.48 969 21.6752 969 20.8361V-44.8361C969 -45.6752 969.105 -46.48 969.293 -47.0733C969.48 -47.6666 969.735 -48 970 -48C970.265 -48 970.52 -47.6666 970.707 -47.0733C970.895 -46.48 971 -45.6752 971 -44.8361V20.8361C971 21.6752 970.895 22.48 970.707 23.0733C970.52 23.6666 970.265 24 970 24Z" fill="#0D59EE" fill-opacity="0.4"/>
<path opacity="0.4" d="M977 29C976.735 29 976.48 28.6628 976.293 28.0626C976.105 27.4623 976 26.6483 976 25.7994V-49.8067C976 -50.2267 976.026 -50.6425 976.076 -51.0304C976.126 -51.4183 976.2 -51.7707 976.293 -52.0673C976.386 -52.3639 976.496 -52.599 976.617 -52.759C976.739 -52.9191 976.869 -53.0009 977 -53C977.131 -53.0009 977.261 -52.9191 977.383 -52.759C977.504 -52.599 977.614 -52.3639 977.707 -52.0673C977.8 -51.7707 977.874 -51.4183 977.924 -51.0304C977.974 -50.6425 978 -50.2267 978 -49.8067V25.7994C978 26.2197 977.974 26.6359 977.924 27.0242C977.874 27.4126 977.8 27.7654 977.707 28.0626C977.614 28.3598 977.504 28.5955 977.383 28.7563C977.261 28.9172 977.131 29 977 29Z" fill="#0D59EE" fill-opacity="0.4"/>
<path opacity="0.4" d="M984 31C983.735 31 983.48 30.6607 983.293 30.0567C983.105 29.4528 983 28.6337 983 27.7796V-51.7723C983 -52.1958 983.025 -52.6153 983.075 -53.0069C983.126 -53.3985 983.199 -53.7544 983.292 -54.0542C983.385 -54.354 983.495 -54.5919 983.617 -54.7542C983.738 -54.9165 983.868 -55 984 -55C984.265 -55 984.52 -54.6607 984.707 -54.0567C984.895 -53.4528 985 -52.6337 985 -51.7796V27.7796C985 28.6337 984.895 29.4528 984.707 30.0567C984.52 30.6607 984.265 31 984 31Z" fill="#0D59EE" fill-opacity="0.4"/>
<path opacity="0.4" d="M991 7C990.735 7 990.48 6.66284 990.293 6.06272C990.105 5.46261 990 4.64868 990 3.79998V-27.8C990 -28.6487 990.105 -29.4626 990.293 -30.0628C990.48 -30.6629 990.735 -31 991 -31C991.265 -31 991.52 -30.6629 991.707 -30.0628C991.895 -29.4626 992 -28.6487 992 -27.8V3.79998C992 4.64868 991.895 5.46261 991.707 6.06272C991.52 6.66284 991.265 7 991 7Z" fill="#0D59EE" fill-opacity="0.4"/>
<path opacity="0.4" d="M998 8C997.735 8 997.48 7.65943 997.293 7.05325C997.105 6.44707 997 5.62492 997 4.76766V-28.775C997.001 -29.631 997.106 -30.4513 997.294 -31.0559C997.481 -31.6604 997.735 -32 998 -32C998.265 -32 998.519 -31.6604 998.706 -31.0559C998.894 -30.4513 998.999 -29.631 999 -28.775V4.76766C999 5.62492 998.895 6.44707 998.707 7.05325C998.52 7.65943 998.265 8 998 8Z" fill="#0D59EE" fill-opacity="0.4"/>
<path opacity="0.4" d="M1006 -34.8463C1006 -36.5881 1005.55 -38 1005 -38C1004.45 -38 1004 -36.5881 1004 -34.8463V10.8463C1004 12.588 1004.45 14 1005 14C1005.55 14 1006 12.588 1006 10.8463V-34.8463Z" fill="#0D59EE" fill-opacity="0.4"/>
<path opacity="0.4" d="M1013 -35.8576C1013 -37.5931 1012.33 -39 1011.5 -39C1010.67 -39 1010 -37.5931 1010 -35.8576V11.8575C1010 13.5931 1010.67 15 1011.5 15C1012.33 15 1013 13.5931 1013 11.8575V-35.8576Z" fill="#0D59EE" fill-opacity="0.4"/>
<path opacity="0.4" d="M1018 33C1017.74 33 1017.48 32.6661 1017.29 32.0719C1017.11 31.4776 1017 30.6716 1017 29.8312V-53.8312C1017 -54.6716 1017.11 -55.4776 1017.29 -56.0719C1017.48 -56.6661 1017.74 -57 1018 -57C1018.13 -57 1018.26 -56.918 1018.38 -56.7586C1018.51 -56.5993 1018.62 -56.3658 1018.71 -56.0714C1018.8 -55.7771 1018.87 -55.4277 1018.92 -55.0433C1018.97 -54.6589 1019 -54.247 1019 -53.8312V29.8312C1019 30.247 1018.97 30.6589 1018.92 31.0433C1018.87 31.4277 1018.8 31.7771 1018.71 32.0714C1018.62 32.3658 1018.51 32.5993 1018.38 32.7586C1018.26 32.918 1018.13 33 1018 33Z" fill="#0D59EE" fill-opacity="0.4"/>
<path opacity="0.4" d="M1025 35C1024.74 35 1024.48 34.6654 1024.29 34.0699C1024.11 33.4744 1024 32.6667 1024 31.8245V-55.8246C1024 -56.6667 1024.11 -57.4744 1024.29 -58.0699C1024.48 -58.6654 1024.74 -59 1025 -59C1025.13 -59 1025.26 -58.9178 1025.38 -58.7581C1025.51 -58.5985 1025.62 -58.3645 1025.71 -58.0695C1025.8 -57.7746 1025.87 -57.4244 1025.92 -57.0392C1025.97 -56.654 1026 -56.2412 1026 -55.8246V31.8245C1026 32.2412 1025.97 32.654 1025.92 33.0392C1025.87 33.4244 1025.8 33.7746 1025.71 34.0695C1025.62 34.3645 1025.51 34.5985 1025.38 34.7581C1025.26 34.9178 1025.13 35 1025 35Z" fill="#0D59EE" fill-opacity="0.4"/>
<path opacity="0.4" d="M1032 43C1031.73 43 1031.48 42.6628 1031.29 42.0625C1031.11 41.4623 1031 40.6482 1031 39.7993V-63.7993C1031 -64.6482 1031.11 -65.4623 1031.29 -66.0625C1031.48 -66.6628 1031.73 -67 1032 -67C1032.27 -67 1032.52 -66.6628 1032.71 -66.0625C1032.89 -65.4623 1033 -64.6482 1033 -63.7993V39.7993C1033 40.2197 1032.97 40.6359 1032.92 41.0242C1032.87 41.4125 1032.8 41.7653 1032.71 42.0625C1032.61 42.3597 1032.5 42.5955 1032.38 42.7563C1032.26 42.9172 1032.13 43 1032 43Z" fill="#0D59EE" fill-opacity="0.4"/>
<path opacity="0.4" d="M1039 45C1038.73 45 1038.48 44.6646 1038.29 44.0678C1038.11 43.4709 1038 42.6614 1038 41.8172V-65.8173C1038 -66.6614 1038.11 -67.4709 1038.29 -68.0678C1038.48 -68.6647 1038.73 -69 1039 -69C1039.27 -69 1039.52 -68.6647 1039.71 -68.0678C1039.89 -67.4709 1040 -66.6614 1040 -65.8173V41.8172C1040 42.6614 1039.89 43.4709 1039.71 44.0678C1039.52 44.6646 1039.27 45 1039 45Z" fill="#0D59EE" fill-opacity="0.4"/>
<path opacity="0.4" d="M1046 23C1045.73 23 1045.48 22.6622 1045.29 22.0611C1045.11 21.4599 1045 20.6445 1045 19.7943V-43.7943C1045 -44.6445 1045.11 -45.4599 1045.29 -46.0611C1045.48 -46.6622 1045.73 -47 1046 -47C1046.27 -47 1046.52 -46.6622 1046.71 -46.0611C1046.89 -45.4599 1047 -44.6445 1047 -43.7943V19.7943C1047 20.2153 1046.97 20.6322 1046.92 21.0211C1046.87 21.41 1046.8 21.7634 1046.71 22.0611C1046.61 22.3587 1046.5 22.5949 1046.38 22.756C1046.26 22.9171 1046.13 23 1046 23Z" fill="#0D59EE" fill-opacity="0.4"/>
<path opacity="0.4" d="M1053 24C1052.73 24 1052.48 23.6666 1052.29 23.0733C1052.11 22.48 1052 21.6752 1052 20.8361V-44.8361C1052 -45.6752 1052.11 -46.48 1052.29 -47.0733C1052.48 -47.6666 1052.73 -48 1053 -48C1053.27 -48 1053.52 -47.6666 1053.71 -47.0733C1053.89 -46.48 1054 -45.6752 1054 -44.8361V20.8361C1054 21.6752 1053.89 22.48 1053.71 23.0733C1053.52 23.6666 1053.27 24 1053 24Z" fill="#0D59EE" fill-opacity="0.4"/>
<path opacity="0.4" d="M1060 14C1059.87 14 1059.74 13.9184 1059.62 13.7598C1059.49 13.6012 1059.38 13.3688 1059.29 13.0758C1059.2 12.7829 1059.13 12.4352 1059.08 12.0526C1059.03 11.67 1059 11.2601 1059 10.8463V-34.8463C1059 -35.2601 1059.03 -35.6701 1059.08 -36.0527C1059.13 -36.4352 1059.2 -36.783 1059.29 -37.0759C1059.38 -37.3688 1059.49 -37.6013 1059.62 -37.7598C1059.74 -37.9184 1059.87 -38 1060 -38C1060.26 -38 1060.52 -37.6678 1060.71 -37.0763C1060.89 -36.4849 1061 -35.6827 1061 -34.8463V10.8463C1061 11.2604 1060.97 11.6706 1060.92 12.0532C1060.87 12.4358 1060.8 12.7834 1060.71 13.0763C1060.61 13.3691 1060.5 13.6014 1060.38 13.7599C1060.26 13.9184 1060.13 14 1060 14Z" fill="#0D59EE" fill-opacity="0.4"/>
<path opacity="0.4" d="M1067 15C1066.87 15 1066.74 14.9187 1066.62 14.7606C1066.49 14.6026 1066.38 14.3711 1066.29 14.0792C1066.2 13.7873 1066.13 13.4408 1066.08 13.0596C1066.03 12.6784 1066 12.2699 1066 11.8575V-35.8576C1066 -36.2699 1066.03 -36.6784 1066.08 -37.0596C1066.13 -37.4408 1066.2 -37.7873 1066.29 -38.0792C1066.38 -38.3711 1066.49 -38.6027 1066.62 -38.7607C1066.74 -38.9187 1066.87 -39 1067 -39C1067.26 -39 1067.52 -38.6689 1067.71 -38.0796C1067.89 -37.4903 1068 -36.691 1068 -35.8576V11.8575C1068 12.691 1067.89 13.4903 1067.71 14.0796C1067.52 14.6689 1067.26 15 1067 15Z" fill="#0D59EE" fill-opacity="0.4"/>
<path opacity="0.4" d="M1074 8C1073.74 8 1073.48 7.6637 1073.29 7.0651C1073.11 6.46651 1073 5.65465 1073 4.80811V-28.8154C1073 -29.6606 1073.11 -30.4706 1073.29 -31.0677C1073.48 -31.6647 1073.74 -32 1074 -32C1074.27 -32 1074.52 -31.6645 1074.71 -31.0672C1074.89 -30.47 1075 -29.66 1075 -28.8154V4.80811C1075 5.22693 1074.97 5.64182 1074.92 6.02903C1074.87 6.41625 1074.8 6.76817 1074.71 7.06466C1074.62 7.36115 1074.51 7.59638 1074.38 7.75688C1074.26 7.91737 1074.13 8 1074 8Z" fill="#0D59EE" fill-opacity="0.4"/>
<path opacity="0.4" d="M1080 9C1079.74 9 1079.48 8.66119 1079.29 8.05816C1079.11 7.45511 1079 6.63721 1079 5.78439V-29.7844C1079 -30.6373 1079.11 -31.4552 1079.29 -32.0582C1079.48 -32.6612 1079.74 -33 1080 -33C1080.13 -33 1080.26 -32.9168 1080.38 -32.7551C1080.51 -32.5934 1080.62 -32.3564 1080.71 -32.0578C1080.8 -31.7591 1080.87 -31.4045 1080.92 -31.0144C1080.97 -30.6243 1081 -30.2064 1081 -29.7844V5.78439C1081 6.20632 1080.97 6.62434 1080.92 7.01443C1080.87 7.40452 1080.8 7.75906 1080.71 8.05775C1080.62 8.35644 1080.51 8.59338 1080.38 8.75507C1080.26 8.91676 1080.13 9 1080 9Z" fill="#0D59EE" fill-opacity="0.4"/>
<path opacity="0.4" d="M1101 15C1100.87 15 1100.74 14.9187 1100.62 14.7606C1100.49 14.6026 1100.38 14.3711 1100.29 14.0792C1100.2 13.7873 1100.13 13.4408 1100.08 13.0596C1100.03 12.6784 1100 12.2699 1100 11.8575V-35.8576C1100 -36.2699 1100.03 -36.6784 1100.08 -37.0596C1100.13 -37.4408 1100.2 -37.7873 1100.29 -38.0792C1100.38 -38.3711 1100.49 -38.6027 1100.62 -38.7607C1100.74 -38.9187 1100.87 -39 1101 -39C1101.26 -39 1101.52 -38.6689 1101.71 -38.0796C1101.89 -37.4903 1102 -36.691 1102 -35.8576V11.8575C1102 12.691 1101.89 13.4903 1101.71 14.0796C1101.52 14.6689 1101.26 15 1101 15Z" fill="#0D59EE" fill-opacity="0.4"/>
<path opacity="0.4" d="M1108 8C1107.74 8 1107.48 7.6637 1107.29 7.0651C1107.11 6.46651 1107 5.65465 1107 4.80811V-28.8154C1107 -29.6606 1107.11 -30.4706 1107.29 -31.0677C1107.48 -31.6647 1107.74 -32 1108 -32C1108.27 -32 1108.52 -31.6645 1108.71 -31.0672C1108.89 -30.47 1109 -29.66 1109 -28.8154V4.80811C1109 5.22693 1108.97 5.64182 1108.92 6.02903C1108.87 6.41625 1108.8 6.76817 1108.71 7.06466C1108.62 7.36115 1108.51 7.59638 1108.38 7.75688C1108.26 7.91737 1108.13 8 1108 8Z" fill="#0D59EE" fill-opacity="0.4"/>
<path opacity="0.4" d="M1115 9C1114.74 9 1114.48 8.66119 1114.29 8.05816C1114.11 7.45511 1114 6.63721 1114 5.78439V-29.7844C1114 -30.6373 1114.11 -31.4552 1114.29 -32.0582C1114.48 -32.6612 1114.74 -33 1115 -33C1115.13 -33 1115.26 -32.9168 1115.38 -32.7551C1115.51 -32.5934 1115.62 -32.3564 1115.71 -32.0578C1115.8 -31.7591 1115.87 -31.4045 1115.92 -31.0144C1115.97 -30.6243 1116 -30.2064 1116 -29.7844V5.78439C1116 6.20632 1115.97 6.62434 1115.92 7.01443C1115.87 7.40452 1115.8 7.75906 1115.71 8.05775C1115.62 8.35644 1115.51 8.59338 1115.38 8.75507C1115.26 8.91676 1115.13 9 1115 9Z" fill="#0D59EE" fill-opacity="0.4"/>
<path opacity="0.4" d="M1136 24C1135.87 24 1135.74 23.9179 1135.62 23.7583C1135.5 23.5988 1135.39 23.3649 1135.29 23.0701C1135.2 22.7753 1135.13 22.4254 1135.08 22.0402C1135.03 21.6551 1135 21.2422 1135 20.8253V-44.8326C1135 -45.2491 1135.03 -45.6616 1135.08 -46.0463C1135.13 -46.4311 1135.2 -46.7806 1135.29 -47.0748C1135.39 -47.3691 1135.5 -47.6022 1135.62 -47.761C1135.74 -47.9198 1135.87 -48.0009 1136 -48C1136.13 -48.0009 1136.26 -47.9198 1136.38 -47.761C1136.5 -47.6022 1136.61 -47.3691 1136.71 -47.0748C1136.8 -46.7806 1136.87 -46.4311 1136.92 -46.0463C1136.97 -45.6616 1137 -45.2491 1137 -44.8326V20.8253C1137 21.6673 1136.89 22.4748 1136.71 23.0701C1136.52 23.6655 1136.27 24 1136 24Z" fill="#0D59EE" fill-opacity="0.4"/>
<path opacity="0.4" d="M1142.5 26C1142.3 26 1142.11 25.9169 1141.93 25.7554C1141.74 25.5938 1141.58 25.357 1141.44 25.0586C1141.3 24.7601 1141.19 24.4058 1141.11 24.0159C1141.04 23.6259 1141 23.2079 1141 22.7858V-46.7859C1141 -47.208 1141.04 -47.6259 1141.11 -48.0159C1141.19 -48.4058 1141.3 -48.7602 1141.44 -49.0586C1141.58 -49.3571 1141.74 -49.5938 1141.93 -49.7554C1142.11 -49.9169 1142.3 -50 1142.5 -50C1142.9 -50 1143.28 -49.6614 1143.56 -49.0586C1143.84 -48.4559 1144 -47.6383 1144 -46.7859V22.7858C1144 23.6383 1143.84 24.4558 1143.56 25.0586C1143.28 25.6613 1142.9 26 1142.5 26Z" fill="#0D59EE" fill-opacity="0.4"/>
<path opacity="0.4" d="M1149 7C1148.73 7 1148.48 6.66284 1148.29 6.06272C1148.11 5.46261 1148 4.64868 1148 3.79998V-27.8C1148 -28.6487 1148.11 -29.4626 1148.29 -30.0628C1148.48 -30.6629 1148.73 -31 1149 -31C1149.27 -31 1149.52 -30.6629 1149.71 -30.0628C1149.89 -29.4626 1150 -28.6487 1150 -27.8V3.79998C1150 4.64868 1149.89 5.46261 1149.71 6.06272C1149.52 6.66284 1149.27 7 1149 7Z" fill="#0D59EE" fill-opacity="0.4"/>
<path opacity="0.4" d="M1156 8C1155.73 8 1155.48 7.65943 1155.29 7.05325C1155.11 6.44707 1155 5.62492 1155 4.76766V-28.775C1155 -29.631 1155.11 -30.4513 1155.29 -31.0559C1155.48 -31.6604 1155.74 -32 1156 -32C1156.26 -32 1156.52 -31.6604 1156.71 -31.0559C1156.89 -30.4513 1157 -29.631 1157 -28.775V4.76766C1157 5.62492 1156.89 6.44707 1156.71 7.05325C1156.52 7.65943 1156.27 8 1156 8Z" fill="#0D59EE" fill-opacity="0.4"/>
<path opacity="0.4" d="M1163 14C1162.74 14 1162.48 13.6677 1162.29 13.0763C1162.11 12.4849 1162 11.6827 1162 10.8463V-34.8463C1162 -35.6827 1162.11 -36.4849 1162.29 -37.0763C1162.48 -37.6678 1162.74 -38 1163 -38C1163.27 -37.9981 1163.52 -37.665 1163.71 -37.0738C1163.89 -36.4826 1164 -35.6815 1164 -34.8463V10.8463C1164 11.6815 1163.89 12.4825 1163.71 13.0737C1163.52 13.665 1163.27 13.9981 1163 14Z" fill="#0D59EE" fill-opacity="0.4"/>
<path opacity="0.4" d="M1169 16.8374C1169 18.5841 1169.45 20 1170 20C1170.55 20 1171 18.5841 1171 16.8374V-40.8374C1171 -42.584 1170.55 -44 1170 -44C1169.45 -44 1169 -42.584 1169 -40.8374V16.8374Z" fill="#0D59EE" fill-opacity="0.4"/>
<path opacity="0.4" d="M1176 18.7759C1176 20.5565 1176.45 22 1177 22C1177.55 22 1178 20.5565 1178 18.7759V-42.7758C1178 -44.5565 1177.55 -46 1177 -46C1176.45 -46 1176 -44.5565 1176 -42.7758V18.7759Z" fill="#0D59EE" fill-opacity="0.4"/>
<path opacity="0.4" d="M1184 43C1184.27 43 1184.52 42.6628 1184.71 42.0625C1184.89 41.4623 1185 40.6482 1185 39.7993V-63.7993C1185 -64.6482 1184.89 -65.4623 1184.71 -66.0625C1184.52 -66.6628 1184.27 -67 1184 -67C1183.73 -67 1183.48 -66.6628 1183.29 -66.0625C1183.11 -65.4623 1183 -64.6482 1183 -63.7993V39.7993C1183 40.2197 1183.03 40.6359 1183.08 41.0242C1183.13 41.4125 1183.2 41.7653 1183.29 42.0625C1183.39 42.3597 1183.5 42.5955 1183.62 42.7563C1183.74 42.9172 1183.87 43 1184 43Z" fill="#0D59EE" fill-opacity="0.4"/>
<path opacity="0.4" d="M1191 45C1191.27 45 1191.52 44.6646 1191.71 44.0678C1191.89 43.4709 1192 42.6614 1192 41.8172V-65.8173C1192 -66.6614 1191.89 -67.4709 1191.71 -68.0678C1191.52 -68.6647 1191.27 -69 1191 -69C1190.73 -69 1190.48 -68.6647 1190.29 -68.0678C1190.11 -67.4709 1190 -66.6614 1190 -65.8173V41.8172C1190 42.6614 1190.11 43.4709 1190.29 44.0678C1190.48 44.6646 1190.73 45 1191 45Z" fill="#0D59EE" fill-opacity="0.4"/>
<path opacity="0.4" d="M1198 29C1198.26 29 1198.52 28.6628 1198.71 28.0626C1198.89 27.4623 1199 26.6483 1199 25.7994V-49.8067C1199 -50.2267 1198.97 -50.6425 1198.92 -51.0304C1198.87 -51.4183 1198.8 -51.7707 1198.71 -52.0673C1198.61 -52.3639 1198.5 -52.599 1198.38 -52.759C1198.26 -52.9191 1198.13 -53.0009 1198 -53C1197.87 -53.001 1197.74 -52.919 1197.62 -52.7589C1197.49 -52.5987 1197.38 -52.3636 1197.29 -52.0669C1197.2 -51.7701 1197.13 -51.4177 1197.08 -51.0299C1197.03 -50.642 1197 -50.2263 1197 -49.8067V25.7994C1197 26.2194 1197.03 26.6354 1197.08 27.0237C1197.13 27.4119 1197.2 27.7648 1197.29 28.0621C1197.38 28.3594 1197.49 28.5953 1197.62 28.7562C1197.74 28.9172 1197.87 29 1198 29Z" fill="#0D59EE" fill-opacity="0.4"/>
<path opacity="0.4" d="M1205 31C1205.26 31 1205.52 30.6607 1205.71 30.0567C1205.89 29.4527 1206 28.6335 1206 27.7793V-51.7793C1206 -52.6335 1205.89 -53.4527 1205.71 -54.0567C1205.52 -54.6607 1205.26 -55 1205 -55C1204.87 -55 1204.74 -54.9167 1204.62 -54.7547C1204.49 -54.5928 1204.38 -54.3554 1204.29 -54.0563C1204.2 -53.7571 1204.13 -53.402 1204.08 -53.0113C1204.03 -52.6206 1204 -52.2019 1204 -51.7793V27.7793C1204 28.2019 1204.03 28.6206 1204.08 29.0113C1204.13 29.402 1204.2 29.7571 1204.29 30.0563C1204.38 30.3554 1204.49 30.5927 1204.62 30.7547C1204.74 30.9166 1204.87 31 1205 31Z" fill="#0D59EE" fill-opacity="0.4"/>
<path opacity="0.4" d="M1211 51C1211.27 50.9981 1211.52 50.6592 1211.71 50.0577C1211.89 49.4562 1212 48.6413 1212 47.7916V-71.7916C1212 -72.6413 1211.89 -73.4563 1211.71 -74.0577C1211.52 -74.6592 1211.27 -74.9981 1211 -75C1210.74 -75 1210.48 -74.662 1210.29 -74.0603C1210.11 -73.4586 1210 -72.6426 1210 -71.7916V47.7916C1210 48.6425 1210.11 49.4586 1210.29 50.0603C1210.48 50.662 1210.74 51 1211 51Z" fill="#0D59EE" fill-opacity="0.4"/>
<path opacity="0.4" d="M1218 53C1218.27 52.9981 1218.52 52.6627 1218.71 52.0673C1218.89 51.4719 1219 50.6652 1219 49.8241V-73.8242C1219 -74.6652 1218.89 -75.4719 1218.71 -76.0673C1218.52 -76.6627 1218.27 -76.9981 1218 -77C1217.74 -77 1217.48 -76.6654 1217.29 -76.0698C1217.11 -75.4743 1217 -74.6665 1217 -73.8242V49.8241C1217 50.6664 1217.11 51.4742 1217.29 52.0698C1217.48 52.6654 1217.74 53 1218 53Z" fill="#0D59EE" fill-opacity="0.4"/>
<path opacity="0.4" d="M1225 62C1225.27 62 1225.52 61.664 1225.71 61.0659C1225.89 60.4679 1226 59.6567 1226 58.811V-82.811C1226 -83.6568 1225.89 -84.4679 1225.71 -85.066C1225.52 -85.664 1225.27 -86 1225 -86C1224.73 -86 1224.48 -85.664 1224.29 -85.066C1224.11 -84.4679 1224 -83.6568 1224 -82.811V58.811C1224 59.2298 1224.03 59.6445 1224.08 60.0314C1224.13 60.4183 1224.2 60.7698 1224.29 61.0659C1224.39 61.3621 1224.5 61.597 1224.62 61.7572C1224.74 61.9175 1224.87 62 1225 62Z" fill="#0D59EE" fill-opacity="0.4"/>
<path opacity="0.4" d="M1232 65C1232.27 65 1232.52 64.6645 1232.71 64.0674C1232.89 63.4702 1233 62.6603 1233 61.8158V-85.8158C1233 -86.6603 1232.89 -87.4702 1232.71 -88.0674C1232.52 -88.6645 1232.27 -89 1232 -89C1231.73 -89 1231.48 -88.6645 1231.29 -88.0674C1231.11 -87.4702 1231 -86.6603 1231 -85.8158V61.8158C1231 62.6603 1231.11 63.4702 1231.29 64.0674C1231.48 64.6645 1231.73 65 1232 65Z" fill="#0D59EE" fill-opacity="0.4"/>
<path opacity="0.4" d="M1238 29.7899C1238 31.5628 1238.45 33 1239 33C1239.55 33 1240 31.5628 1240 29.7899V-53.7899C1240 -55.5628 1239.55 -57 1239 -57C1238.45 -57 1238 -55.5628 1238 -53.7899V29.7899Z" fill="#0D59EE" fill-opacity="0.4"/>
<path opacity="0.4" d="M1245 31.7831C1245 33.5597 1245.45 35 1246 35C1246.55 35 1247 33.5597 1247 31.7831V-55.7831C1247 -57.5597 1246.55 -59 1246 -59C1245.45 -59 1245 -57.5597 1245 -55.7831V31.7831Z" fill="#0D59EE" fill-opacity="0.4"/>
<path opacity="0.4" d="M1253 50C1252.73 50 1252.48 49.6652 1252.29 49.0692C1252.11 48.4733 1252 47.665 1252 46.8222V-70.8222C1252 -71.665 1252.11 -72.4733 1252.29 -73.0692C1252.48 -73.6652 1252.73 -74 1253 -74C1253.27 -74 1253.52 -73.6652 1253.71 -73.0692C1253.89 -72.4733 1254 -71.665 1254 -70.8222V46.8222C1254 47.2395 1253.97 47.6527 1253.92 48.0383C1253.87 48.4238 1253.8 48.7741 1253.71 49.0692C1253.61 49.3643 1253.5 49.5984 1253.38 49.7581C1253.26 49.9178 1253.13 50 1253 50Z" fill="#0D59EE" fill-opacity="0.4"/>
<path opacity="0.4" d="M1260 53C1259.73 53 1259.48 52.6631 1259.29 52.0635C1259.11 51.4639 1259 50.6506 1259 49.8027V-73.8027C1259 -74.6506 1259.11 -75.4639 1259.29 -76.0635C1259.48 -76.6631 1259.73 -77 1260 -77C1260.27 -77 1260.52 -76.6631 1260.71 -76.0635C1260.89 -75.4639 1261 -74.6506 1261 -73.8027V49.8027C1261 50.6506 1260.89 51.4639 1260.71 52.0635C1260.52 52.6631 1260.27 53 1260 53Z" fill="#0D59EE" fill-opacity="0.4"/>
<path opacity="0.4" d="M1267 43C1266.74 43 1266.48 42.6628 1266.29 42.0625C1266.11 41.4623 1266 40.6482 1266 39.7993V-63.7993C1266 -64.6482 1266.11 -65.4623 1266.29 -66.0625C1266.48 -66.6628 1266.74 -67 1267 -67C1267.27 -66.9981 1267.52 -66.66 1267.71 -66.06C1267.89 -65.4599 1268 -64.647 1268 -63.7993V39.7993C1268 40.6469 1267.89 41.4599 1267.71 42.06C1267.52 42.66 1267.27 42.9981 1267 43Z" fill="#0D59EE" fill-opacity="0.4"/>
<path opacity="0.4" d="M1273.5 45C1273.1 45 1272.72 44.6646 1272.44 44.0678C1272.16 43.4709 1272 42.6614 1272 41.8172V-65.8173C1272 -66.6614 1272.16 -67.4709 1272.44 -68.0678C1272.72 -68.6647 1273.1 -69 1273.5 -69C1273.9 -68.9981 1274.28 -68.6619 1274.56 -68.0653C1274.84 -67.4686 1275 -66.6601 1275 -65.8173V41.8172C1275 42.6601 1274.84 43.4686 1274.56 44.0653C1274.28 44.6619 1273.9 44.9981 1273.5 45Z" fill="#0D59EE" fill-opacity="0.4"/>
<path opacity="0.4" d="M1280 23C1279.73 23 1279.48 22.6622 1279.29 22.0611C1279.11 21.4599 1279 20.6445 1279 19.7943V-43.7943C1279 -44.6445 1279.11 -45.4599 1279.29 -46.0611C1279.48 -46.6622 1279.73 -47 1280 -47C1280.27 -47 1280.52 -46.6622 1280.71 -46.0611C1280.89 -45.4599 1281 -44.6445 1281 -43.7943V19.7943C1281 20.2153 1280.97 20.6322 1280.92 21.0211C1280.87 21.41 1280.8 21.7634 1280.71 22.0611C1280.61 22.3587 1280.5 22.5949 1280.38 22.756C1280.26 22.9171 1280.13 23 1280 23Z" fill="#0D59EE" fill-opacity="0.4"/>
<path opacity="0.4" d="M1287 24C1286.73 24 1286.48 23.6666 1286.29 23.0733C1286.11 22.48 1286 21.6752 1286 20.8361V-44.8361C1286 -45.6752 1286.11 -46.48 1286.29 -47.0733C1286.48 -47.6666 1286.73 -48 1287 -48C1287.27 -48 1287.52 -47.6666 1287.71 -47.0733C1287.89 -46.48 1288 -45.6752 1288 -44.8361V20.8361C1288 21.6752 1287.89 22.48 1287.71 23.0733C1287.52 23.6666 1287.27 24 1287 24Z" fill="#0D59EE" fill-opacity="0.4"/>
<path opacity="0.4" d="M1294 33C1293.73 33 1293.48 32.6618 1293.29 32.0598C1293.11 31.4577 1293 30.6412 1293 29.7899V-53.7899C1293 -54.6413 1293.11 -55.4578 1293.29 -56.0598C1293.48 -56.6618 1293.73 -57 1294 -57C1294.27 -57 1294.52 -56.6618 1294.71 -56.0598C1294.89 -55.4578 1295 -54.6413 1295 -53.7899V29.7899C1295 30.2114 1294.97 30.6289 1294.92 31.0183C1294.87 31.4078 1294.8 31.7617 1294.71 32.0598C1294.61 32.3578 1294.5 32.5943 1294.38 32.7556C1294.26 32.9169 1294.13 33 1294 33Z" fill="#0D59EE" fill-opacity="0.4"/>
<path opacity="0.4" d="M1301 35C1300.73 35 1300.48 34.6611 1300.29 34.0578C1300.11 33.4545 1300 32.6362 1300 31.7831V-55.7831C1300 -56.6362 1300.11 -57.4545 1300.29 -58.0578C1300.48 -58.6611 1300.73 -59 1301 -59C1301.27 -59 1301.52 -58.6611 1301.71 -58.0578C1301.89 -57.4545 1302 -56.6362 1302 -55.7831V31.7831C1302 32.6362 1301.89 33.4545 1301.71 34.0578C1301.52 34.6611 1301.27 35 1301 35Z" fill="#0D59EE" fill-opacity="0.4"/>
<path opacity="0.4" d="M1309 -71.7919C1309 -73.5637 1308.55 -75 1308 -75C1307.45 -75 1307 -73.5637 1307 -71.7919V47.7918C1307 49.5636 1307.45 51 1308 51C1308.55 51 1309 49.5636 1309 47.7918V-71.7919Z" fill="#0D59EE" fill-opacity="0.4"/>
<path opacity="0.4" d="M1316 -73.8242C1316 -75.5782 1315.55 -77 1315 -77C1314.45 -77 1314 -75.5782 1314 -73.8242V49.8241C1314 51.5781 1314.45 53 1315 53C1315.55 53 1316 51.5781 1316 49.8241V-73.8242Z" fill="#0D59EE" fill-opacity="0.4"/>
<path opacity="0.4" d="M1322 14C1321.73 13.9981 1321.48 13.665 1321.29 13.0737C1321.11 12.4825 1321 11.6815 1321 10.8463V-34.8463C1321 -35.6815 1321.11 -36.4826 1321.29 -37.0738C1321.48 -37.665 1321.73 -37.9981 1322 -38C1322.26 -38 1322.52 -37.6678 1322.71 -37.0763C1322.89 -36.4849 1323 -35.6827 1323 -34.8463V10.8463C1323 11.2604 1322.97 11.6706 1322.92 12.0532C1322.87 12.4358 1322.8 12.7834 1322.71 13.0763C1322.61 13.3691 1322.5 13.6014 1322.38 13.7599C1322.26 13.9184 1322.13 14 1322 14Z" fill="#0D59EE" fill-opacity="0.4"/>
<path opacity="0.4" d="M1329 15C1328.73 14.9981 1328.48 14.6662 1328.29 14.0771C1328.11 13.488 1328 12.6897 1328 11.8575V-35.8576C1328 -36.6898 1328.11 -37.488 1328.29 -38.0771C1328.48 -38.6662 1328.73 -38.9981 1329 -39C1329.26 -39 1329.52 -38.6689 1329.71 -38.0796C1329.89 -37.4903 1330 -36.691 1330 -35.8576V11.8575C1330 12.691 1329.89 13.4903 1329.71 14.0796C1329.52 14.6689 1329.26 15 1329 15Z" fill="#0D59EE" fill-opacity="0.4"/>
<path opacity="0.4" d="M1336 23C1335.73 23 1335.48 22.6622 1335.29 22.0611C1335.11 21.4599 1335 20.6445 1335 19.7943V-43.7943C1335 -44.6445 1335.11 -45.4599 1335.29 -46.0611C1335.48 -46.6622 1335.73 -47 1336 -47C1336.27 -47 1336.52 -46.6622 1336.71 -46.0611C1336.89 -45.4599 1337 -44.6445 1337 -43.7943V19.7943C1337 20.2153 1336.97 20.6322 1336.92 21.0211C1336.87 21.41 1336.8 21.7634 1336.71 22.0611C1336.61 22.3587 1336.5 22.5949 1336.38 22.756C1336.26 22.9171 1336.13 23 1336 23Z" fill="#0D59EE" fill-opacity="0.4"/>
<path opacity="0.4" d="M1342 24C1341.73 24 1341.48 23.6666 1341.29 23.0733C1341.11 22.48 1341 21.6752 1341 20.8361V-44.8361C1341 -45.6752 1341.11 -46.48 1341.29 -47.0733C1341.48 -47.6666 1341.73 -48 1342 -48C1342.27 -48 1342.52 -47.6666 1342.71 -47.0733C1342.89 -46.48 1343 -45.6752 1343 -44.8361V20.8361C1343 21.6752 1342.89 22.48 1342.71 23.0733C1342.52 23.6666 1342.27 24 1342 24Z" fill="#0D59EE" fill-opacity="0.4"/>
<path opacity="0.4" d="M1349 29C1348.73 29 1348.48 28.6628 1348.29 28.0626C1348.11 27.4623 1348 26.6483 1348 25.7994V-49.8067C1348 -50.2267 1348.03 -50.6425 1348.08 -51.0304C1348.13 -51.4183 1348.2 -51.7707 1348.29 -52.0673C1348.39 -52.3639 1348.5 -52.599 1348.62 -52.759C1348.74 -52.9191 1348.87 -53.0009 1349 -53C1349.13 -53.0009 1349.26 -52.9191 1349.38 -52.759C1349.5 -52.599 1349.61 -52.3639 1349.71 -52.0673C1349.8 -51.7707 1349.87 -51.4183 1349.92 -51.0304C1349.97 -50.6425 1350 -50.2267 1350 -49.8067V25.7994C1350 26.2197 1349.97 26.6359 1349.92 27.0242C1349.87 27.4126 1349.8 27.7654 1349.71 28.0626C1349.61 28.3598 1349.5 28.5955 1349.38 28.7563C1349.26 28.9172 1349.13 29 1349 29Z" fill="#0D59EE" fill-opacity="0.4"/>
<path opacity="0.4" d="M1356 31C1355.73 31 1355.48 30.6607 1355.29 30.0567C1355.11 29.4528 1355 28.6337 1355 27.7796V-51.7723C1355 -52.1958 1355.03 -52.6153 1355.08 -53.0069C1355.13 -53.3985 1355.2 -53.7544 1355.29 -54.0542C1355.38 -54.354 1355.5 -54.5919 1355.62 -54.7542C1355.74 -54.9165 1355.87 -55 1356 -55C1356.27 -55 1356.52 -54.6607 1356.71 -54.0567C1356.89 -53.4528 1357 -52.6337 1357 -51.7796V27.7796C1357 28.6337 1356.89 29.4528 1356.71 30.0567C1356.52 30.6607 1356.27 31 1356 31Z" fill="#0D59EE" fill-opacity="0.4"/>
<path opacity="0.4" d="M1363 7C1362.73 7 1362.48 6.66284 1362.29 6.06272C1362.11 5.46261 1362 4.64868 1362 3.79998V-27.8C1362 -28.6487 1362.11 -29.4626 1362.29 -30.0628C1362.48 -30.6629 1362.73 -31 1363 -31C1363.27 -31 1363.52 -30.6629 1363.71 -30.0628C1363.89 -29.4626 1364 -28.6487 1364 -27.8V3.79998C1364 4.64868 1363.89 5.46261 1363.71 6.06272C1363.52 6.66284 1363.27 7 1363 7Z" fill="#0D59EE" fill-opacity="0.4"/>
<path opacity="0.4" d="M1370 8C1369.73 8 1369.48 7.65943 1369.29 7.05325C1369.11 6.44707 1369 5.62492 1369 4.76766V-28.775C1369 -29.631 1369.11 -30.4513 1369.29 -31.0559C1369.48 -31.6604 1369.74 -32 1370 -32C1370.26 -32 1370.52 -31.6604 1370.71 -31.0559C1370.89 -30.4513 1371 -29.631 1371 -28.775V4.76766C1371 5.62492 1370.89 6.44707 1370.71 7.05325C1370.52 7.65943 1370.27 8 1370 8Z" fill="#0D59EE" fill-opacity="0.4"/>
<path opacity="0.4" d="M1378 -34.8463C1378 -36.5881 1377.55 -38 1377 -38C1376.45 -38 1376 -36.5881 1376 -34.8463V10.8463C1376 12.588 1376.45 14 1377 14C1377.55 14 1378 12.588 1378 10.8463V-34.8463Z" fill="#0D59EE" fill-opacity="0.4"/>
<path opacity="0.4" d="M1385 -35.8576C1385 -37.5931 1384.55 -39 1384 -39C1383.45 -39 1383 -37.5931 1383 -35.8576V11.8575C1383 13.5931 1383.45 15 1384 15C1384.55 15 1385 13.5931 1385 11.8575V-35.8576Z" fill="#0D59EE" fill-opacity="0.4"/>
<path opacity="0.4" d="M1391 33C1390.74 33 1390.48 32.6661 1390.29 32.0719C1390.11 31.4776 1390 30.6716 1390 29.8312V-53.8312C1390 -54.6716 1390.11 -55.4776 1390.29 -56.0719C1390.48 -56.6661 1390.74 -57 1391 -57C1391.13 -57 1391.26 -56.918 1391.38 -56.7586C1391.51 -56.5993 1391.62 -56.3658 1391.71 -56.0714C1391.8 -55.7771 1391.87 -55.4277 1391.92 -55.0433C1391.97 -54.6589 1392 -54.247 1392 -53.8312V29.8312C1392 30.247 1391.97 30.6589 1391.92 31.0433C1391.87 31.4277 1391.8 31.7771 1391.71 32.0714C1391.62 32.3658 1391.51 32.5993 1391.38 32.7586C1391.26 32.918 1391.13 33 1391 33Z" fill="#0D59EE" fill-opacity="0.4"/>
<path opacity="0.4" d="M1398 35C1397.74 35 1397.48 34.6654 1397.29 34.0699C1397.11 33.4744 1397 32.6667 1397 31.8245V-55.8246C1397 -56.6667 1397.11 -57.4744 1397.29 -58.0699C1397.48 -58.6654 1397.74 -59 1398 -59C1398.13 -59 1398.26 -58.9178 1398.38 -58.7581C1398.51 -58.5985 1398.62 -58.3645 1398.71 -58.0695C1398.8 -57.7746 1398.87 -57.4244 1398.92 -57.0392C1398.97 -56.654 1399 -56.2412 1399 -55.8246V31.8245C1399 32.2412 1398.97 32.654 1398.92 33.0392C1398.87 33.4244 1398.8 33.7746 1398.71 34.0695C1398.62 34.3645 1398.51 34.5985 1398.38 34.7581C1398.26 34.9178 1398.13 35 1398 35Z" fill="#0D59EE" fill-opacity="0.4"/>
<path opacity="0.4" d="M1404.5 43C1404.1 43 1403.72 42.6628 1403.44 42.0625C1403.16 41.4623 1403 40.6482 1403 39.7993V-63.7993C1403 -64.6482 1403.16 -65.4623 1403.44 -66.0625C1403.72 -66.6628 1404.1 -67 1404.5 -67C1404.9 -67 1405.28 -66.6628 1405.56 -66.0625C1405.84 -65.4623 1406 -64.6482 1406 -63.7993V39.7993C1406 40.2197 1405.96 40.6359 1405.89 41.0242C1405.81 41.4125 1405.7 41.7653 1405.56 42.0625C1405.42 42.3597 1405.26 42.5955 1405.07 42.7563C1404.89 42.9172 1404.7 43 1404.5 43Z" fill="#0D59EE" fill-opacity="0.4"/>
<path opacity="0.4" d="M1411 45C1410.73 45 1410.48 44.6646 1410.29 44.0678C1410.11 43.4709 1410 42.6614 1410 41.8172V-65.8173C1410 -66.6614 1410.11 -67.4709 1410.29 -68.0678C1410.48 -68.6647 1410.73 -69 1411 -69C1411.27 -69 1411.52 -68.6647 1411.71 -68.0678C1411.89 -67.4709 1412 -66.6614 1412 -65.8173V41.8172C1412 42.6614 1411.89 43.4709 1411.71 44.0678C1411.52 44.6646 1411.27 45 1411 45Z" fill="#0D59EE" fill-opacity="0.4"/>
<path opacity="0.4" d="M1418 23C1417.73 23 1417.48 22.6622 1417.29 22.0611C1417.11 21.4599 1417 20.6445 1417 19.7943V-43.7943C1417 -44.6445 1417.11 -45.4599 1417.29 -46.0611C1417.48 -46.6622 1417.73 -47 1418 -47C1418.27 -47 1418.52 -46.6622 1418.71 -46.0611C1418.89 -45.4599 1419 -44.6445 1419 -43.7943V19.7943C1419 20.2153 1418.97 20.6322 1418.92 21.0211C1418.87 21.41 1418.8 21.7634 1418.71 22.0611C1418.61 22.3587 1418.5 22.5949 1418.38 22.756C1418.26 22.9171 1418.13 23 1418 23Z" fill="#0D59EE" fill-opacity="0.4"/>
<path opacity="0.4" d="M1425 24C1424.73 24 1424.48 23.6666 1424.29 23.0733C1424.11 22.48 1424 21.6752 1424 20.8361V-44.8361C1424 -45.6752 1424.11 -46.48 1424.29 -47.0733C1424.48 -47.6666 1424.73 -48 1425 -48C1425.27 -48 1425.52 -47.6666 1425.71 -47.0733C1425.89 -46.48 1426 -45.6752 1426 -44.8361V20.8361C1426 21.6752 1425.89 22.48 1425.71 23.0733C1425.52 23.6666 1425.27 24 1425 24Z" fill="#0D59EE" fill-opacity="0.4"/>
<path opacity="0.4" d="M1432 14C1431.87 14 1431.74 13.9184 1431.62 13.7598C1431.49 13.6012 1431.38 13.3688 1431.29 13.0758C1431.2 12.7829 1431.13 12.4352 1431.08 12.0526C1431.03 11.67 1431 11.2601 1431 10.8463V-34.8463C1431 -35.2601 1431.03 -35.6701 1431.08 -36.0527C1431.13 -36.4352 1431.2 -36.783 1431.29 -37.0759C1431.38 -37.3688 1431.49 -37.6013 1431.62 -37.7598C1431.74 -37.9184 1431.87 -38 1432 -38C1432.26 -38 1432.52 -37.6678 1432.71 -37.0763C1432.89 -36.4849 1433 -35.6827 1433 -34.8463V10.8463C1433 11.2604 1432.97 11.6706 1432.92 12.0532C1432.87 12.4358 1432.8 12.7834 1432.71 13.0763C1432.61 13.3691 1432.5 13.6014 1432.38 13.7599C1432.26 13.9184 1432.13 14 1432 14Z" fill="#0D59EE" fill-opacity="0.4"/>
<path opacity="0.4" d="M1439 15C1438.87 15 1438.74 14.9187 1438.62 14.7606C1438.49 14.6026 1438.38 14.3711 1438.29 14.0792C1438.2 13.7873 1438.13 13.4408 1438.08 13.0596C1438.03 12.6784 1438 12.2699 1438 11.8575V-35.8576C1438 -36.2699 1438.03 -36.6784 1438.08 -37.0596C1438.13 -37.4408 1438.2 -37.7873 1438.29 -38.0792C1438.38 -38.3711 1438.49 -38.6027 1438.62 -38.7607C1438.74 -38.9187 1438.87 -39 1439 -39C1439.26 -39 1439.52 -38.6689 1439.71 -38.0796C1439.89 -37.4903 1440 -36.691 1440 -35.8576V11.8575C1440 12.691 1439.89 13.4903 1439.71 14.0796C1439.52 14.6689 1439.26 15 1439 15Z" fill="#0D59EE" fill-opacity="0.4"/>
</svg>
